<svg width="88" height="74" viewBox="0 0 88 74" fill="none" xmlns="http://www.w3.org/2000/svg">
<mask id="mask0_22_809" style="mask-type:luminance" maskUnits="userSpaceOnUse" x="0" y="0" width="89" height="75">
<path d="M0 0H88.0105V74.0351H0V0Z" fill="white"/>
</mask>
<g mask="url(#mask0_22_809)">
<path d="M43.9896 3.74657C32.7447 3.74657 22.568 6.77926 15.2416 11.7504C8.11318 16.5756 3.69442 23.1464 3.69442 30.3165C3.69442 37.2937 7.81617 43.6457 14.5381 48.4188C20.4888 52.6291 28.4301 55.5576 37.3354 56.532L37.2312 56.3705L37.1791 56.2663L37.0748 56.1621L37.0227 56.1047V56.0526L36.9654 56.0005L36.9133 55.8911H36.8612L36.757 55.7348L36.7049 55.6254L36.6528 55.5732L36.5954 55.469L36.5433 55.3596L36.387 55.2033L36.3349 55.0938L36.2828 54.9896L36.2255 54.8802L36.1734 54.776L36.1213 54.7239H36.0692L36.017 54.6145V54.5623L35.9649 54.5102L35.9128 54.4008L35.8607 54.2966L35.8034 54.2445L35.7513 54.1351L35.6992 54.0308L35.595 53.9214V53.9579L35.5429 53.9058L35.4908 53.8016L35.4334 53.7442L35.3813 53.64V53.6036L35.2771 53.442L35.225 53.3378L35.1729 53.2857V53.2492L35.1208 53.1398L35.0635 53.0877L35.0114 52.9314L34.9593 52.8219L34.9071 52.7698L34.8029 52.5562L34.7508 52.452L34.6987 52.3946V52.3425L34.6414 52.2383V52.1862L34.5893 52.1289L34.5372 52.0247L34.4851 51.9153L34.3809 51.7068L34.3287 51.6495L34.2714 51.4932L34.2193 51.4359L34.1672 51.3316V51.2952L34.1151 51.2431V51.1388H34.063V51.0294L34.0109 50.9252L33.9588 50.8158L33.9067 50.7637V50.6595L33.8494 50.55L33.7972 50.4458L33.7451 50.3364L33.693 50.1801L33.5888 49.9664L33.5367 49.8049L33.4794 49.5912L33.3752 49.3776L33.3231 49.2213L33.271 49.0076L33.1667 48.8461L33.1094 48.6324L33.0573 48.4188L33.0052 48.2625L32.901 48.0488L32.7968 47.6216L32.7447 47.46L32.6873 47.2516L32.5831 46.8243L32.4789 46.6628L32.3747 46.2355L32.3174 46.027L32.1611 45.3861V45.1725L32.1089 45.0109L32.0568 44.7973L32.0047 44.5889L31.9526 44.3752L31.8953 44.1616L31.8432 43.9479V44.0209L31.739 43.5936V43.38L31.6348 42.9527V42.7755L31.5827 42.5254L31.5253 42.317V42.1033L31.4732 41.8897V41.7125L31.4211 41.4989V41.2852L31.369 41.0716V40.613L31.3169 40.3994V39.9721L31.2648 39.722V39.0863L31.2127 38.8726V36.1578C31.3169 34.0057 31.5097 31.9474 31.9683 29.9986C30.2956 28.3103 28.4666 26.9607 26.6324 25.8977C25.0483 24.9754 23.4277 24.298 21.7915 23.8915C20.4732 28.451 20.6295 33.3335 22.0052 37.7367C23.5372 42.7599 26.5282 47.1265 30.504 49.5912C31.4211 50.1071 31.666 51.2795 31.1762 52.1654C30.6134 53.0356 29.5035 53.3013 28.6229 52.7855C23.8342 49.857 20.2231 44.7296 18.4462 38.8882C16.7214 33.1928 16.6693 26.8356 18.8527 21.0881C19.1497 20.27 20.0147 19.7542 20.8953 19.9157C23.4486 20.3221 25.981 21.2445 28.4822 22.6826C30.0663 23.5528 31.5827 24.6888 33.0573 25.9654C33.271 25.3975 33.4638 24.8868 33.6774 24.3709C35.3501 20.3221 37.7418 16.9299 40.5921 14.5694C41.2643 14.0014 42.2648 14.0014 42.9891 14.5694C45.8394 16.9299 48.2364 20.3221 49.9091 24.3709C50.1175 24.8868 50.3103 25.3975 50.5239 25.9654C52.0038 24.6888 53.5306 23.5528 55.099 22.6826C57.5481 21.2966 60.0805 20.3221 62.5817 19.9157C63.4467 19.7021 64.3586 20.1606 64.713 21.0881C66.0313 24.5846 66.4377 28.7376 65.875 33.0313C65.3122 37.1322 63.8844 41.4467 61.5448 45.5477C59.1478 49.6433 56.2089 53.0356 52.9522 55.5941C50.5031 57.4387 47.9706 58.8769 45.3652 59.7471C51.1232 65.0882 58.6893 67.8551 63.6395 69.137C61.5604 65.6405 61.4562 62.4098 62.4254 59.497C63.7437 55.6462 66.9484 52.6291 69.6059 50.7272C69.7101 50.6751 69.8195 50.5709 69.9029 50.5135C74.0768 48.1531 77.8963 45.0318 80.4861 41.2852C82.7215 38.0545 84.1493 34.3653 84.1493 30.3165C84.1493 23.1256 79.7305 16.5599 72.5969 11.7504C65.4685 6.77926 55.2918 3.74657 43.9896 3.74657ZM51.8266 30.0142C52.2852 32.3226 52.5301 34.8394 52.5301 37.398C52.5301 40.0607 52.2852 42.6348 51.7224 45.0474C51.1544 47.6216 50.3468 49.9664 49.3254 52.1289C48.8669 53.0512 47.7414 53.4108 46.8243 52.947C45.9124 52.5406 45.558 51.4046 46.0166 50.4823C46.8764 48.5803 47.6371 46.4856 48.0957 44.2658C48.549 42.0668 48.7992 39.7584 48.7992 37.398C48.7992 33.1355 48.0384 29.1961 46.6679 25.7518C45.4538 22.8806 43.8697 20.4107 41.9834 18.514C40.0502 20.4107 38.4818 22.8806 37.3041 25.7518C35.9806 28.9304 35.225 32.6249 35.1208 36.5799V39.0289L35.1729 39.2426V39.8314L35.225 40.045V40.4671L35.2771 40.6286V41.0559L35.3292 41.2696V41.4259L35.3813 41.6395V41.8532L35.4334 42.0147V42.2284L35.4908 42.4368V42.5983L35.5429 42.812V42.9735L35.595 43.1819L35.6471 43.3956V43.5571L35.6992 43.7708L35.7513 43.9323V44.1407L35.8034 44.3023L35.8607 44.5159L35.9128 44.6774V44.8911L35.9649 45.0474L36.017 45.2611L36.0692 45.4226L36.1213 45.6362L36.1734 45.7926L36.2255 46.0062V46.1677L36.2828 46.3241L36.3349 46.5377L36.4391 46.8608L36.4912 47.0692L36.5954 47.3923L36.7049 47.6059L36.757 47.7622L36.8612 48.0853L36.9133 48.299L36.9654 48.4553L37.0227 48.6168L37.127 48.7784L37.1791 48.9347L37.2312 49.0962L37.2833 49.3099L37.3875 49.4662L37.4448 49.6277L37.4969 49.7319L37.549 49.8935L37.6011 49.9456V50.055L37.6532 50.1071L37.7053 50.2113L37.7575 50.3729L37.8148 50.425V50.4823L37.8669 50.5865V50.6386L37.919 50.748L37.9711 50.8001L38.0232 50.9044V50.9565L38.0753 51.0659L38.1795 51.2274L38.2369 51.3838L38.3411 51.5453L38.3932 51.6495V51.7068L38.4453 51.811L38.6068 52.0612L38.6589 52.1654L38.711 52.2175L38.7631 52.3269L38.8153 52.4832H38.8674L38.9195 52.5927L39.0289 52.7542L39.081 52.9105L39.1852 53.0199L39.2894 53.2284L39.3415 53.2857V53.3378L39.3989 53.3899L39.451 53.4993L39.5031 53.5514L39.5552 53.6557C39.7688 53.9579 39.9616 54.2236 40.1701 54.5259L40.2222 54.6353L40.2795 54.6874L40.3316 54.7395V54.7916C40.3837 54.8437 40.4358 54.901 40.4879 55.0053H40.54C40.6442 55.1668 40.7537 55.3075 40.8944 55.469L40.9465 55.5732L41.0507 55.6827L41.1549 55.7869C41.3164 55.9484 41.4571 56.1412 41.6135 56.3028L41.6656 56.407H41.7229C41.9313 56.6206 42.072 56.8186 42.2856 57.0271C42.3899 57.0844 42.442 57.1365 42.4941 57.1886C42.5462 57.298 42.6556 57.3501 42.7077 57.4022C45.5059 56.7821 48.4083 55.3961 51.0502 53.3013C53.9578 51.0503 56.5945 48.0124 58.7257 44.3752C60.8049 40.6808 62.0867 36.8821 62.5974 33.2449C63.0038 30.1185 62.811 27.19 62.0867 24.5846C60.5026 24.991 58.8873 25.6632 57.298 26.5907C55.2918 26.9763 53.4993 28.3103 51.8266 30.0142ZM13.1677 8.66036C21.0881 3.28281 31.9839 0 43.9896 0C55.9953 0 66.9275 3.28281 74.8167 8.66036C82.9508 14.1473 88 21.7968 88 30.3165C88 35.199 86.3847 39.5969 83.7272 43.4529C80.7674 47.658 76.5415 51.191 71.9143 53.8172C69.731 55.4117 67.1256 57.8087 66.1199 60.7372C65.2028 63.4572 65.8229 66.8442 69.8873 70.695C70.3458 71.1067 70.5543 71.6746 70.5022 72.2947C70.3458 73.3265 69.4287 74.0351 68.4283 73.9257C68.3762 73.9257 51.2274 71.6746 41.1549 60.5965C29.91 60.0806 19.7854 56.6936 12.4069 51.4723C4.71574 46.0062 -0.0208839 38.5704 -0.0208839 30.3165C-0.0208839 21.7968 5.01797 14.163 13.1677 8.66036Z" fill="#33D1B3"/>
</g>
</svg>
