<svg width="183" height="170" viewBox="0 0 183 170" fill="none" xmlns="http://www.w3.org/2000/svg">
<g clip-path="url(#clip0_9_132)">
<path d="M122.777 120.515H57.4375C51.9453 120.515 47.4772 116.043 47.4772 110.545V45.1426C47.4772 39.6451 51.9453 35.1727 57.4375 35.1727H122.777C128.269 35.1727 132.737 39.6451 132.737 45.1426V110.545C132.737 116.043 128.269 120.515 122.777 120.515ZM57.4375 36.7679C52.8167 36.7679 49.0709 40.5173 49.0709 45.1426V110.545C49.0709 115.17 52.8167 118.92 57.4375 118.92H103.206C118.636 118.92 131.144 106.4 131.144 90.9555V45.1426C131.144 40.5173 127.398 36.7679 122.777 36.7679L57.4375 36.7679Z" fill="#F2F2F2"/>
<path d="M64.4817 43.569C61.3893 43.569 58.8735 46.0872 58.8735 49.1827V57.9692C58.8735 61.0646 61.3893 63.5828 64.4817 63.5828H73.2598C76.3523 63.5828 78.868 61.0646 78.868 57.9692V49.1827C78.868 46.0872 76.3523 43.569 73.2598 43.569H64.4817Z" fill="#F2F2F2"/>
<path d="M64.4817 68.3043C61.3893 68.3043 58.8735 70.8224 58.8735 73.9179V82.7044C58.8735 85.7999 61.3893 88.318 64.4817 88.318H73.2598C76.3523 88.318 78.868 85.7999 78.868 82.7044V73.9179C78.868 70.8224 76.3523 68.3043 73.2598 68.3043H64.4817Z" fill="#F2F2F2"/>
<path d="M64.4817 93.0395C61.3893 93.0395 58.8735 95.5577 58.8735 98.6531V107.44C58.8735 110.535 61.3893 113.053 64.4817 113.053H73.2598C76.3523 113.053 78.868 110.535 78.868 107.44V98.6531C78.868 95.5577 76.3523 93.0395 73.2598 93.0395H64.4817Z" fill="#F2F2F2"/>
<path d="M70.3028 22.1318C66.4062 22.1318 63.2363 25.3048 63.2363 29.2051V40.2764C63.2363 44.1768 66.4062 47.3498 70.3028 47.3498H81.3634C85.26 47.3498 88.4299 44.1768 88.4299 40.2764V29.2051C88.4299 25.3048 85.26 22.1318 81.3634 22.1318H70.3028Z" fill="#61ACDD"/>
<path d="M106.717 53.0715C102.821 53.0715 99.6506 56.2444 99.6506 60.1448V71.2161C99.6506 75.1165 102.821 78.2894 106.717 78.2894H117.778C121.674 78.2894 124.844 75.1165 124.844 71.2161V60.1448C124.844 56.2444 121.674 53.0715 117.778 53.0715H106.717Z" fill="#61ACDD"/>
<path d="M90.886 164.508L88.639 164.49L87.6443 155.612L90.9607 155.64L90.886 164.508Z" fill="#A0616A"/>
<path d="M83.6886 168.085C83.6838 168.639 84.1296 169.094 84.6846 169.099L89.1522 169.137L89.9343 167.55L90.2215 169.145L91.9072 169.16L91.4816 163.471L90.8951 163.432L88.5029 163.267L87.7312 163.216L87.7176 164.825L84.1288 167.262C83.8558 167.447 83.6914 167.755 83.6886 168.085Z" fill="#2F2E41"/>
<path d="M102.318 164.508L100.071 164.49L99.0768 155.612L102.393 155.64L102.318 164.508Z" fill="#A0616A"/>
<path d="M95.121 168.085C95.1162 168.639 95.562 169.094 96.117 169.099L100.585 169.137L101.367 167.55L101.654 169.145L103.34 169.16L102.914 163.471L102.327 163.432L99.9353 163.267L99.1636 163.216L99.15 164.825L95.5612 167.262C95.2882 167.447 95.1238 167.755 95.121 168.085Z" fill="#2F2E41"/>
<path d="M82.0686 92.7335L91.1767 93.0214L99.8054 94.9408C99.8054 94.9408 98.9425 95.9964 101.819 98.8754C101.819 98.8754 105.654 105.593 102.969 112.119L101.819 138.222C101.819 138.222 105.173 156.623 102.61 162.479L99.2229 162.691L93.491 138.434L90.6973 112.311L89.355 138.03C89.355 138.03 94.49 155.683 91.2475 162.691L87.5788 162.479L81.3016 138.03C81.3016 138.03 78.6171 109.816 79.0006 104.442C79.3841 99.0674 82.0686 92.7335 82.0686 92.7335Z" fill="#2F2E41"/>
<path d="M112.656 51.4865C111.411 51.8092 110.663 53.0811 110.985 54.3274C111.133 54.8985 111.481 55.3631 111.933 55.67L111.933 55.6732L111.756 59.9556L115.03 61.4722L115.292 54.8823L115.269 54.883C115.553 54.3768 115.651 53.7652 115.494 53.1588C115.172 51.9125 113.901 51.1638 112.656 51.4865Z" fill="#A0616A"/>
<path d="M94.3573 66.7703C93.6695 66.0879 93.2705 65.1627 93.2556 64.1566C93.2355 62.807 93.9113 61.582 95.063 60.8799C96.3894 60.0713 98.0481 60.1531 99.2887 61.0881L109.57 68.8363L111.401 57.6744L115.334 58.9417L114.396 73.4761C114.33 74.4928 113.756 75.3884 112.86 75.8719C111.964 76.3554 110.902 76.3433 110.017 75.8395L95.1595 67.3784C94.861 67.2084 94.5922 67.0034 94.3573 66.7703Z" fill="#3F3D56"/>
<path d="M78.6808 45.243C79.3381 46.3496 78.9746 47.7801 77.869 48.4379C77.3624 48.7394 76.7884 48.824 76.2514 48.7232L76.2493 48.7256L73.3625 51.8912L69.9708 50.6609L74.4204 45.7969L74.4361 45.8135C74.5906 45.2539 74.9511 44.7505 75.489 44.4304C76.5946 43.7725 78.0236 44.1364 78.6808 45.243Z" fill="#A0616A"/>
<path d="M79.9277 68.8587L63.4254 64.3968C62.4428 64.1311 61.6795 63.3906 61.3833 62.4159C61.0872 61.4412 61.3095 60.4006 61.9779 59.6323L71.5347 48.6494L75.2191 50.5212L68.669 59.7388L81.4198 61.4817C82.9585 61.6921 84.1939 62.8029 84.5671 64.3118C84.8911 65.6221 84.5094 66.9682 83.5458 67.9126C82.8276 68.6165 81.8935 68.9923 80.9251 68.9922C80.5943 68.9922 80.2592 68.9483 79.9277 68.8587Z" fill="#3F3D56"/>
<path d="M103.455 96.5737L80.3782 97.6333C79.7444 96.6699 79.9161 95.2213 80.8036 93.4073C84.1549 86.5582 81.6097 73.6011 79.8976 66.8542C79.4172 64.9613 80.7068 63.0794 82.6483 62.885L84.8241 62.6672L86.8354 56.5217H93.8794L96.8017 59.8635L101.761 62.8791C100.858 72.1864 97.012 85.329 102.492 91.92C103.69 93.3615 104.03 94.9204 103.455 96.5737Z" fill="#3F3D56"/>
<path d="M89.4614 56.6636C93.2507 56.6636 96.3225 53.5889 96.3225 49.7959C96.3225 46.003 93.2507 42.9283 89.4614 42.9283C85.6722 42.9283 82.6004 46.003 82.6004 49.7959C82.6004 53.5889 85.6722 56.6636 89.4614 56.6636Z" fill="#A0616A"/>
<path d="M97.2253 45.3999C98.1799 41.9163 87.7759 38.929 85.7541 41.7344C85.473 41.3355 84.434 41.0932 83.9573 41.2156C83.4806 41.3379 83.0797 41.6438 82.6885 41.9399C82.1507 42.3534 81.5934 42.7817 81.2633 43.3763C80.9309 43.9684 80.8795 44.776 81.3269 45.2898C81.6814 45.6985 82.3042 47.87 82.8372 47.9776C83.2087 48.0535 83.5217 48.1147 83.7906 48.1587C84.0301 47.8088 84.6411 47.3692 84.5971 46.9459C84.9589 47.1857 84.8267 47.6076 84.7537 48.0388C84.5109 49.4747 79.0384 60.5896 82.1727 57.3143C82.4832 57.4978 82.867 57.6691 83.3095 57.8257C84.06 56.6927 84.676 55.3567 85.0818 53.9594L85.0847 53.9852C85.2244 55.1995 86.1109 56.1958 87.2838 56.5359C91.9886 57.9002 95.7943 55.8983 97.1035 52.2881C96.6243 51.3142 96.4154 51.4199 96.4584 51.391C97.0566 50.9874 97.8789 51.2513 98.136 51.9261C98.2119 52.125 98.2808 52.2948 98.3405 52.4226C99.0225 49.9805 99.8337 50.333 97.2253 45.3999Z" fill="#2F2E41"/>
<path d="M93.9796 42.8724L93.499 40.4131C93.4586 40.2064 93.4202 39.9821 93.5134 39.7931C93.633 39.5504 93.9406 39.4498 94.2082 39.4885C94.4759 39.5272 94.676 39.7719 94.9423 39.819C95.8681 39.9828 97.0918 39.0675 97.4235 41.3831C97.5618 42.3485 99.1008 42.4505 99.6148 43.2791C100.129 44.1076 100.192 45.3036 99.4904 45.9805C98.9302 46.5211 98.0305 46.5835 97.3029 46.3074C96.5753 46.0312 95.9913 45.4734 95.4812 44.8851C94.9711 44.2969 94.5092 43.6603 93.9208 43.1505" fill="#2F2E41"/>
<path d="M97.5918 46.613C95.7144 46.3505 94.4347 45.6671 93.7883 44.5818C92.9423 43.1612 93.509 41.597 93.5335 41.5311L93.9303 41.6788C93.9251 41.6931 93.411 43.125 94.1542 44.3685C94.7324 45.3358 95.9087 45.9498 97.6503 46.1933L97.5918 46.613Z" fill="#61ACDD"/>
<path d="M106.402 20.0396C100.883 20.0396 96.3918 15.5444 96.3918 10.0198C96.3918 4.49521 100.883 0 106.402 0C111.921 0 116.412 4.49521 116.412 10.0198C116.412 15.5444 111.921 20.0396 106.402 20.0396ZM106.402 4.00792C103.09 4.00792 100.396 6.70466 100.396 10.0198C100.396 13.335 103.09 16.0317 106.402 16.0317C109.714 16.0317 112.408 13.335 112.408 10.0198C112.408 6.70466 109.714 4.00792 106.402 4.00792Z" fill="#61ACDD"/>
<path d="M121.803 26.849C121.313 26.849 120.821 26.6699 120.435 26.3069L111.039 17.4936C110.232 16.7372 110.191 15.469 110.948 14.6618C111.702 13.8516 112.969 13.8115 113.777 14.5698L123.172 23.3831C123.979 24.1395 124.02 25.4076 123.264 26.2149C122.87 26.6366 122.337 26.849 121.803 26.849Z" fill="#61ACDD"/>
<path d="M164.265 164.284C164.946 164.326 165.322 163.48 164.807 162.986L164.756 162.782C164.763 162.766 164.77 162.75 164.776 162.734C165.465 161.09 167.798 161.102 168.48 162.747C169.086 164.208 169.857 165.671 170.047 167.215C170.132 167.896 170.094 168.591 169.943 169.26C171.362 166.156 172.109 162.767 172.109 159.359C172.109 158.502 172.063 157.646 171.967 156.792C171.888 156.093 171.779 155.399 171.639 154.711C170.879 150.991 169.234 147.449 166.861 144.49C165.721 143.866 164.77 142.891 164.195 141.721C163.989 141.299 163.827 140.846 163.75 140.383C163.88 140.4 164.24 138.421 164.142 138.3C164.323 138.025 164.646 137.889 164.844 137.621C165.827 136.287 167.18 136.52 167.887 138.332C169.397 139.095 169.412 140.36 168.485 141.576C167.896 142.35 167.815 143.397 167.298 144.226C167.351 144.294 167.406 144.36 167.459 144.428C168.435 145.681 169.279 147.027 169.99 148.442C169.789 146.87 170.086 144.976 170.592 143.755C171.168 142.364 172.248 141.193 173.198 139.991C174.34 138.546 176.682 139.177 176.883 141.008C176.885 141.025 176.887 141.043 176.889 141.061C176.748 141.14 176.609 141.225 176.474 141.315C175.704 141.825 175.97 143.021 176.883 143.162L176.904 143.165C176.853 143.674 176.766 144.179 176.638 144.676C177.858 149.397 175.224 151.117 171.465 151.194C171.382 151.236 171.301 151.279 171.218 151.32C171.599 152.393 171.903 153.494 172.128 154.611C172.331 155.597 172.471 156.594 172.55 157.595C172.648 158.858 172.639 160.128 172.533 161.389L172.539 161.344C172.809 159.955 173.563 158.658 174.657 157.759C176.286 156.419 178.588 155.926 180.346 154.849C181.193 154.33 182.277 155 182.129 155.982L182.122 156.029C181.86 156.136 181.605 156.259 181.358 156.398C181.217 156.478 181.078 156.562 180.943 156.652C180.173 157.162 180.439 158.358 181.352 158.499L181.373 158.502C181.388 158.505 181.401 158.507 181.416 158.509C180.966 159.576 180.341 160.567 179.558 161.421C178.795 165.542 175.52 165.933 172.016 164.733H172.014C171.631 166.403 171.071 168.035 170.352 169.59H164.414C164.393 169.524 164.374 169.456 164.355 169.39C164.904 169.424 165.457 169.392 165.997 169.292C165.557 168.751 165.116 168.205 164.676 167.664C164.665 167.654 164.657 167.643 164.648 167.632C164.425 167.355 164.199 167.081 163.976 166.804L163.976 166.803C163.962 165.953 164.064 165.106 164.265 164.284Z" fill="#F2F2F2"/>
<path d="M0 169.608C0 169.825 0.174637 170 0.392107 170H181.705C181.922 170 182.097 169.825 182.097 169.608C182.097 169.39 181.922 169.215 181.705 169.215H0.392107C0.174637 169.215 0 169.39 0 169.608Z" fill="#CCCCCC"/>
</g>
<defs>
<clipPath id="clip0_9_132">
<rect width="182.143" height="170" fill="white"/>
</clipPath>
</defs>
</svg>
