<svg width="150" height="206" viewBox="0 0 150 206" fill="none" xmlns="http://www.w3.org/2000/svg">
<g clip-path="url(#clip0_22_785)">
<mask id="mask0_22_785" style="mask-type:luminance" maskUnits="userSpaceOnUse" x="0" y="0" width="150" height="206">
<path d="M0 0.125H149.339V205.214H0V0.125Z" fill="white"/>
</mask>
<g mask="url(#mask0_22_785)">
<path d="M0 0.125H150V216.125H0V0.125Z" fill="#D8FBFA"/>
<path d="M0 0.125H150V206.125H0V0.125Z" fill="#D8FBFA"/>
<path d="M0 0.125H150V206.125H0V0.125Z" fill="#D8FBFA"/>
</g>
<mask id="mask1_22_785" style="mask-type:luminance" maskUnits="userSpaceOnUse" x="26" y="36" width="89" height="75">
<path d="M26.927 36.3438H114.896V110.344H26.927V36.3438Z" fill="white"/>
</mask>
<g mask="url(#mask1_22_785)">
<path d="M70.8957 40.0885C59.6561 40.0885 49.4843 43.1198 42.1613 48.0885C35.0363 52.9115 30.6197 59.4792 30.6197 66.6458C30.6197 73.6198 34.7395 79.9688 41.4582 84.7396C47.4061 88.9479 55.3436 91.875 64.2447 92.849L64.1405 92.6875L64.0884 92.5833L63.9843 92.4792L63.9322 92.4219V92.3698L63.8749 92.3177L63.8228 92.2083H63.7707L63.6665 92.0521L63.6145 91.9427L63.5624 91.8906L63.5051 91.7865L63.453 91.6771L63.2968 91.5208L63.2447 91.4115L63.1926 91.3073L63.1353 91.1979L63.0832 91.0938L63.0311 91.0417H62.979L62.927 90.9323V90.8802L62.8749 90.8281L62.8228 90.7188L62.7707 90.6146L62.7134 90.5625L62.6613 90.4531L62.6093 90.349L62.5051 90.2396V90.276L62.453 90.224L62.4009 90.1198L62.3436 90.0625L62.2915 89.9583V89.9219L62.1874 89.7604L62.1353 89.6562L62.0832 89.6042V89.5677L62.0311 89.4583L61.9738 89.4062L61.9218 89.25L61.8697 89.1406L61.8176 89.0885L61.7134 88.875L61.6613 88.7708L61.6093 88.7135V88.6615L61.552 88.5573V88.5052L61.4999 88.4479L61.4478 88.3438L61.3957 88.2344L61.2915 88.026L61.2395 87.9688L61.1822 87.8125L61.1301 87.7552L61.078 87.651V87.6146L61.0259 87.5625V87.4583H60.9738V87.349L60.9218 87.2448L60.8697 87.1354L60.8176 87.0833V86.9792L60.7603 86.8698L60.7082 86.7656L60.6561 86.6562L60.604 86.5L60.4999 86.2865L60.4478 86.125L60.3905 85.9115L60.2863 85.6979L60.2343 85.5417L60.1822 85.3281L60.078 85.1667L60.0207 84.9531L59.9686 84.7396L59.9165 84.5833L59.8124 84.3698L59.7082 83.9427L59.6561 83.7812L59.5988 83.5729L59.4947 83.1458L59.3905 82.9844L59.2863 82.5573L59.229 82.349L59.0728 81.7083V81.4948L59.0207 81.3333L58.9686 81.1198L58.9165 80.9115L58.8645 80.6979L58.8072 80.4844L58.7551 80.2708V80.3438L58.6509 79.9167V79.7031L58.5468 79.276V79.099L58.4947 78.849L58.4374 78.6406V78.4271L58.3853 78.2135V78.0365L58.3332 77.8229V77.6094L58.2811 77.3958V76.9375L58.229 76.724V76.2969L58.177 76.0469V75.4115L58.1249 75.1979V72.4844C58.229 70.3333 58.4218 68.276 58.8801 66.3281C57.2082 64.6406 55.3801 63.2917 53.5468 62.2292C51.9634 61.3073 50.3436 60.6302 48.7082 60.224C47.3905 64.7813 47.5468 69.6615 48.9218 74.0625C50.453 79.0833 53.4426 83.4479 57.4165 85.9115C58.3332 86.4271 58.578 87.599 58.0884 88.4844C57.5259 89.3542 56.4165 89.6198 55.5363 89.1042C50.7499 86.1771 47.1405 81.0521 45.3645 75.2135C43.6405 69.5208 43.5884 63.1667 45.7707 57.4219C46.0676 56.6042 46.9322 56.0885 47.8124 56.25C50.3645 56.6563 52.8957 57.5781 55.3957 59.0156C56.979 59.8854 58.4947 61.0208 59.9686 62.2969C60.1822 61.7292 60.3749 61.2188 60.5884 60.7031C62.2603 56.6562 64.6509 53.2656 67.4999 50.9062C68.1718 50.3385 69.1718 50.3385 69.8957 50.9062C72.7447 53.2656 75.1405 56.6562 76.8124 60.7031C77.0207 61.2188 77.2134 61.7292 77.427 62.2969C78.9061 61.0208 80.4322 59.8854 81.9999 59.0156C84.4478 57.6302 86.979 56.6563 89.479 56.25C90.3436 56.0365 91.2551 56.4948 91.6093 57.4219C92.927 60.9167 93.3332 65.0677 92.7707 69.3594C92.2082 73.4583 90.7811 77.7708 88.4426 81.8698C86.0468 85.9635 83.1093 89.3542 79.854 91.9115C77.4061 93.7552 74.8749 95.1927 72.2707 96.0625C78.0259 101.401 85.5884 104.167 90.5363 105.448C88.4582 101.953 88.354 98.724 89.3228 95.8125C90.6405 91.9635 93.8436 88.9479 96.4999 87.0469C96.604 86.9948 96.7134 86.8906 96.7968 86.8333C100.969 84.474 104.786 81.3542 107.375 77.6094C109.609 74.3802 111.036 70.6927 111.036 66.6458C111.036 59.4583 106.62 52.8958 99.4895 48.0885C92.3645 43.1198 82.1926 40.0885 70.8957 40.0885ZM78.729 66.3438C79.1874 68.651 79.4322 71.1667 79.4322 73.724C79.4322 76.3854 79.1874 78.9583 78.6249 81.3698C78.0572 83.9427 77.2499 86.2865 76.229 88.4479C75.7707 89.3698 74.6457 89.7292 73.729 89.2656C72.8176 88.8594 72.4634 87.724 72.9218 86.8021C73.7811 84.901 74.5415 82.8073 74.9999 80.5885C75.453 78.3906 75.703 76.0833 75.703 73.724C75.703 69.4635 74.9426 65.526 73.5728 62.0833C72.3593 59.2135 70.7759 56.7448 68.8905 54.849C66.9582 56.7448 65.3905 59.2135 64.2134 62.0833C62.8905 65.2604 62.1353 68.9531 62.0311 72.9062V75.3542L62.0832 75.5677V76.1562L62.1353 76.3698V76.7917L62.1874 76.9531V77.3802L62.2395 77.5938V77.75L62.2915 77.9635V78.1771L62.3436 78.3385V78.5521L62.4009 78.7604V78.9219L62.453 79.1354V79.2969L62.5051 79.5052L62.5572 79.7188V79.8802L62.6093 80.0938L62.6613 80.2552V80.4635L62.7134 80.625L62.7707 80.8385L62.8228 81V81.2135L62.8749 81.3698L62.927 81.5833L62.979 81.7448L63.0311 81.9583L63.0832 82.1146L63.1353 82.3281V82.4896L63.1926 82.6458L63.2447 82.8594L63.3488 83.1823L63.4009 83.3906L63.5051 83.7135L63.6145 83.9271L63.6665 84.0833L63.7707 84.4062L63.8228 84.6198L63.8749 84.776L63.9322 84.9375L64.0363 85.099L64.0884 85.2552L64.1405 85.4167L64.1926 85.6302L64.2968 85.7865L64.354 85.9479L64.4061 86.0521L64.4582 86.2135L64.5103 86.2656V86.375L64.5624 86.4271L64.6145 86.5312L64.6665 86.6927L64.7238 86.7448V86.8021L64.7759 86.9062V86.9583L64.828 87.0677L64.8801 87.1198L64.9322 87.224V87.276L64.9843 87.3854L65.0884 87.5469L65.1457 87.7031L65.2499 87.8646L65.302 87.9688V88.026L65.354 88.1302L65.5155 88.3802L65.5676 88.4844L65.6197 88.5365L65.6718 88.6458L65.7238 88.8021H65.7759L65.828 88.9115L65.9374 89.0729L65.9895 89.2292L66.0936 89.3385L66.1978 89.5469L66.2499 89.6042V89.6562L66.3072 89.7083L66.3593 89.8177L66.4113 89.8698L66.4634 89.974C66.677 90.276 66.8697 90.5417 67.078 90.8438L67.1301 90.9531L67.1874 91.0052L67.2395 91.0573V91.1094C67.2915 91.1615 67.3436 91.2188 67.3957 91.3229H67.4478C67.552 91.4844 67.6613 91.625 67.802 91.7865L67.854 91.8906L67.9582 92L68.0624 92.1042C68.2238 92.2656 68.3645 92.4583 68.5207 92.6198L68.5728 92.724H68.6301C68.8384 92.9375 68.979 93.1354 69.1926 93.3438C69.2968 93.401 69.3488 93.4531 69.4009 93.5052C69.453 93.6146 69.5624 93.6667 69.6145 93.7188C72.4113 93.099 75.3124 91.7135 77.953 89.6198C80.8593 87.3698 83.4947 84.3333 85.6249 80.6979C87.703 77.0052 88.9843 73.2083 89.4947 69.5729C89.9009 66.4479 89.7082 63.5208 88.9843 60.9167C87.4009 61.3229 85.7863 61.9948 84.1978 62.9219C82.1926 63.3073 80.4009 64.6406 78.729 66.3438ZM40.0884 45C48.0051 39.625 58.8957 36.3438 70.8957 36.3438C82.8957 36.3438 93.8228 39.625 101.708 45C109.838 50.4844 114.885 58.1302 114.885 66.6458C114.885 71.526 113.271 75.9219 110.614 79.776C107.656 83.9792 103.432 87.5104 98.8072 90.1354C96.6249 91.7292 94.0207 94.125 93.0155 97.0521C92.0988 99.7708 92.7186 103.156 96.7811 107.005C97.2395 107.417 97.4478 107.984 97.3957 108.604C97.2395 109.635 96.3228 110.344 95.3228 110.234C95.2707 110.234 78.1301 107.984 68.0624 96.9115C56.8228 96.3958 46.703 93.0104 39.328 87.7917C31.6405 82.3281 26.9061 74.8958 26.9061 66.6458C26.9061 58.1302 31.9426 50.5 40.0884 45Z" fill="#33D1B3"/>
</g>
</g>
<defs>
<clipPath id="clip0_22_785">
<rect width="150" height="206" rx="8" fill="white"/>
</clipPath>
</defs>
</svg>
