<svg width="155" height="212" viewBox="0 0 155 212" fill="none" xmlns="http://www.w3.org/2000/svg">
<mask id="mask0_22_818" style="mask-type:luminance" maskUnits="userSpaceOnUse" x="0" y="0" width="155" height="212">
<path d="M0 8.00168C0 3.58247 3.58248 0 8.00169 0H146.419C150.839 0 154.421 3.58248 154.421 8.00169V203.998C154.421 208.418 150.839 212 146.419 212H8.00169C3.58248 212 0 208.418 0 203.998V8.00168Z" fill="white"/>
</mask>
<g mask="url(#mask0_22_818)">
<path d="M0 8.00169C0 3.58249 3.58248 0 8.00169 0H147.103C151.523 0 155.105 3.58248 155.105 8.00169V215.278C155.105 219.697 151.523 223.279 147.103 223.279H8.00169C3.58248 223.279 0 219.697 0 215.278V8.00169Z" fill="#D8FBFA"/>
<path d="M0 8.00169C0 3.58248 3.58248 0 8.00169 0H147.103C151.523 0 155.105 3.58248 155.105 8.00169V204.941C155.105 209.36 151.523 212.942 147.103 212.942H8.00169C3.58248 212.942 0 209.36 0 204.941V8.00169Z" fill="#D8FBFA"/>
<path d="M0 8.00169C0 3.58248 3.58248 0 8.00169 0H147.103C151.523 0 155.105 3.58248 155.105 8.00169V204.941C155.105 209.36 151.523 212.942 147.103 212.942H8.00169C3.58248 212.942 0 209.36 0 204.941V8.00169Z" fill="#D8FBFA"/>
</g>
</svg>
