<svg width="24" height="32" viewBox="0 0 24 32" fill="none" xmlns="http://www.w3.org/2000/svg">
<path fill-rule="evenodd" clip-rule="evenodd" d="M0 11.8627C0 5.32157 5.38314 0 11.9999 0C18.6167 0 23.9999 5.32157 24 11.8627C24 14.04 23.3889 16.4344 22.1838 18.9795C21.2389 20.975 19.9261 23.0733 18.2818 25.216C15.2873 29.0072 13.6348 30.5093 12.5125 31.5294C12.3286 31.6966 12.159 31.8508 12 32C11.8377 31.8477 11.6658 31.6915 11.4805 31.5232C10.3516 30.4972 8.72462 29.0186 5.71826 25.216C4.07389 23.0732 2.76109 20.975 1.8162 18.9795C0.611035 16.4344 0 14.04 0 11.8627ZM1.8994 11.8627C1.8994 19.0648 9.6878 27.1809 11.9999 29.4311C14.3119 27.181 22.1005 19.0648 22.1005 11.8627C22.1005 6.35691 17.5694 1.87767 11.9999 1.87767C6.43047 1.87767 1.8994 6.35691 1.8994 11.8627Z" fill="#61ACDD"/>
<path fill-rule="evenodd" clip-rule="evenodd" d="M14.1698 7.38404C14.9668 8.13705 15.4867 9.07524 15.6899 10.0861C16.1126 10.0013 17.5337 10.0117 18.5842 10.0194H18.5842H18.5843C19.0445 10.0228 19.4336 10.0257 19.6364 10.0198V12.9187C19.6364 15.7941 17.1601 18.1333 14.1165 18.1333C13.4109 18.1334 9.8835 18.1333 9.8835 18.1333C6.83989 18.1333 4.36365 15.7941 4.36365 12.9187V10.0198C4.55991 10.0255 4.94445 10.0227 5.40178 10.0194H5.40179H5.4018H5.40182H5.40183C6.45605 10.0118 7.89702 10.0013 8.31012 10.086C8.51332 9.07518 9.03327 8.13693 9.83044 7.38386L12 5.33333L14.1698 7.38404ZM12.0001 7.87823L11.1773 8.65589C10.5858 9.21461 10.2281 9.92906 10.1405 10.692C10.8842 11.0893 11.5213 11.6447 12.0001 12.3098C12.4788 11.6447 13.1159 11.0893 13.8597 10.692C13.715 9.46376 13.0522 8.8512 12.2014 8.06486L12.2014 8.06485L12.2014 8.06485C12.1354 8.00381 12.0682 7.94173 12.0001 7.87823ZM11.0479 16.3343H9.88357C7.89002 16.3343 6.26807 14.8021 6.26807 12.9188V11.8189H7.4324C9.42595 11.8189 11.0479 13.3511 11.0479 15.2344V16.3343ZM14.1166 16.3343C16.1101 16.3343 17.7321 14.8021 17.7321 12.9188V11.8189H16.5677C14.5742 11.8189 12.9523 13.3511 12.9523 15.2344V16.3343H14.1166Z" fill="#61ACDD"/>
</svg>
