<svg width="414" height="896" viewBox="0 0 414 896" fill="none" xmlns="http://www.w3.org/2000/svg">
<rect width="414" height="896" fill="white"/>
<mask id="mask0_22_1215" style="mask-type:luminance" maskUnits="userSpaceOnUse" x="0" y="0" width="414" height="289">
<path d="M0 0H414V289H0V0Z" fill="white"/>
</mask>
<g mask="url(#mask0_22_1215)">
<rect x="14" y="48" width="40" height="40" rx="8" fill="white"/>
<path d="M41 68H27" stroke="#554749" stroke-width="2" stroke-linecap="round" stroke-linejoin="round"/>
<path d="M34 75L27 68L34 61" stroke="#554749" stroke-width="2" stroke-linecap="round" stroke-linejoin="round"/>
<path d="M121.192 241.15C121.718 241.15 122.162 241.09 122.522 240.97C122.888 240.843 123.185 240.673 123.412 240.46C123.645 240.247 123.812 239.997 123.912 239.71C124.018 239.417 124.072 239.103 124.072 238.77C124.072 238.09 123.838 237.557 123.372 237.17C122.912 236.777 122.182 236.58 121.182 236.58H118.292V241.15H121.192ZM118.292 230.43V234.93H120.632C121.632 234.93 122.378 234.737 122.872 234.35C123.365 233.963 123.612 233.407 123.612 232.68C123.612 231.887 123.378 231.313 122.912 230.96C122.452 230.607 121.728 230.43 120.742 230.43H118.292ZM120.742 228.6C121.662 228.6 122.448 228.69 123.102 228.87C123.755 229.043 124.292 229.293 124.712 229.62C125.132 229.947 125.438 230.347 125.632 230.82C125.832 231.287 125.932 231.813 125.932 232.4C125.932 232.74 125.878 233.07 125.772 233.39C125.672 233.703 125.512 234 125.292 234.28C125.078 234.553 124.808 234.8 124.482 235.02C124.155 235.24 123.768 235.423 123.322 235.57C125.362 236.003 126.382 237.087 126.382 238.82C126.382 239.433 126.265 239.997 126.032 240.51C125.805 241.017 125.472 241.457 125.032 241.83C124.598 242.197 124.062 242.483 123.422 242.69C122.782 242.897 122.052 243 121.232 243H115.952V228.6H120.742ZM138.023 232.8V243H136.723C136.436 243 136.253 242.863 136.173 242.59L136.013 241.64C135.799 241.867 135.573 242.073 135.333 242.26C135.099 242.447 134.849 242.607 134.583 242.74C134.316 242.873 134.029 242.977 133.723 243.05C133.423 243.123 133.099 243.16 132.753 243.16C132.193 243.16 131.699 243.067 131.273 242.88C130.846 242.693 130.486 242.43 130.193 242.09C129.906 241.75 129.689 241.343 129.543 240.87C129.396 240.39 129.323 239.863 129.323 239.29V232.8H131.473V239.29C131.473 239.977 131.629 240.51 131.943 240.89C132.263 241.27 132.746 241.46 133.393 241.46C133.866 241.46 134.306 241.353 134.713 241.14C135.126 240.92 135.513 240.62 135.873 240.24V232.8H138.023ZM144.904 243.16C144.057 243.16 143.404 242.923 142.944 242.45C142.49 241.97 142.264 241.297 142.264 240.43V234.49H141.144C141.024 234.49 140.92 234.453 140.834 234.38C140.747 234.3 140.704 234.183 140.704 234.03V233.16L142.354 232.92L142.824 229.97C142.857 229.857 142.914 229.767 142.994 229.7C143.074 229.627 143.18 229.59 143.314 229.59H144.414V232.94H147.244V234.49H144.414V240.28C144.414 240.647 144.504 240.927 144.684 241.12C144.864 241.313 145.104 241.41 145.404 241.41C145.57 241.41 145.714 241.39 145.834 241.35C145.954 241.303 146.057 241.257 146.144 241.21C146.23 241.157 146.304 241.11 146.364 241.07C146.43 241.023 146.494 241 146.554 241C146.674 241 146.77 241.067 146.844 241.2L147.484 242.25C147.15 242.543 146.757 242.77 146.304 242.93C145.85 243.083 145.384 243.16 144.904 243.16ZM158.669 243H156.319V228.6H158.669V243ZM175.871 234.8C175.804 234.887 175.741 234.953 175.681 235C175.621 235.047 175.534 235.07 175.421 235.07C175.308 235.07 175.188 235.03 175.061 234.95C174.941 234.87 174.794 234.783 174.621 234.69C174.454 234.59 174.251 234.5 174.011 234.42C173.771 234.34 173.471 234.3 173.111 234.3C172.644 234.3 172.234 234.383 171.881 234.55C171.534 234.717 171.241 234.957 171.001 235.27C170.768 235.577 170.591 235.953 170.471 236.4C170.358 236.84 170.301 237.337 170.301 237.89C170.301 238.463 170.364 238.973 170.491 239.42C170.618 239.867 170.798 240.243 171.031 240.55C171.271 240.857 171.558 241.09 171.891 241.25C172.231 241.41 172.611 241.49 173.031 241.49C173.444 241.49 173.781 241.44 174.041 241.34C174.301 241.24 174.518 241.13 174.691 241.01C174.864 240.89 175.011 240.78 175.131 240.68C175.258 240.58 175.391 240.53 175.531 240.53C175.704 240.53 175.838 240.597 175.931 240.73L176.541 241.52C176.294 241.82 176.021 242.073 175.721 242.28C175.421 242.487 175.104 242.657 174.771 242.79C174.438 242.917 174.091 243.007 173.731 243.06C173.371 243.12 173.008 243.15 172.641 243.15C172.008 243.15 171.414 243.033 170.861 242.8C170.314 242.56 169.834 242.217 169.421 241.77C169.014 241.317 168.691 240.767 168.451 240.12C168.218 239.467 168.101 238.723 168.101 237.89C168.101 237.137 168.208 236.44 168.421 235.8C168.634 235.153 168.944 234.597 169.351 234.13C169.764 233.663 170.274 233.3 170.881 233.04C171.488 232.773 172.188 232.64 172.981 232.64C173.721 232.64 174.371 232.76 174.931 233C175.498 233.24 176.001 233.58 176.441 234.02L175.871 234.8ZM184.72 238.54C183.954 238.567 183.307 238.63 182.78 238.73C182.254 238.823 181.827 238.947 181.5 239.1C181.174 239.247 180.937 239.423 180.79 239.63C180.65 239.837 180.58 240.063 180.58 240.31C180.58 240.55 180.617 240.757 180.69 240.93C180.77 241.097 180.877 241.237 181.01 241.35C181.15 241.457 181.31 241.537 181.49 241.59C181.677 241.637 181.88 241.66 182.1 241.66C182.66 241.66 183.14 241.557 183.54 241.35C183.947 241.137 184.34 240.83 184.72 240.43V238.54ZM179.02 234.22C180.174 233.147 181.547 232.61 183.14 232.61C183.727 232.61 184.247 232.707 184.7 232.9C185.16 233.087 185.544 233.353 185.85 233.7C186.164 234.047 186.4 234.46 186.56 234.94C186.727 235.413 186.81 235.94 186.81 236.52V243H185.85C185.644 243 185.487 242.97 185.38 242.91C185.274 242.843 185.184 242.713 185.11 242.52L184.9 241.69C184.64 241.923 184.384 242.133 184.13 242.32C183.877 242.5 183.614 242.653 183.34 242.78C183.074 242.907 182.784 243 182.47 243.06C182.164 243.127 181.824 243.16 181.45 243.16C181.037 243.16 180.65 243.103 180.29 242.99C179.937 242.877 179.63 242.707 179.37 242.48C179.11 242.247 178.904 241.96 178.75 241.62C178.604 241.28 178.53 240.88 178.53 240.42C178.53 240.027 178.634 239.643 178.84 239.27C179.054 238.897 179.4 238.563 179.88 238.27C180.367 237.97 181.004 237.723 181.79 237.53C182.584 237.337 183.56 237.227 184.72 237.2V236.52C184.72 235.787 184.564 235.24 184.25 234.88C183.937 234.52 183.477 234.34 182.87 234.34C182.457 234.34 182.11 234.393 181.83 234.5C181.55 234.6 181.307 234.71 181.1 234.83C180.894 234.95 180.71 235.063 180.55 235.17C180.39 235.27 180.22 235.32 180.04 235.32C179.894 235.32 179.767 235.283 179.66 235.21C179.56 235.13 179.477 235.033 179.41 234.92L179.02 234.22ZM192.339 234.15C192.559 233.923 192.786 233.72 193.019 233.54C193.259 233.353 193.512 233.193 193.779 233.06C194.046 232.927 194.329 232.823 194.629 232.75C194.929 232.677 195.256 232.64 195.609 232.64C196.169 232.64 196.659 232.733 197.079 232.92C197.506 233.107 197.862 233.37 198.149 233.71C198.442 234.05 198.662 234.46 198.809 234.94C198.956 235.413 199.029 235.937 199.029 236.51V243H196.889V236.51C196.889 235.823 196.729 235.29 196.409 234.91C196.096 234.53 195.616 234.34 194.969 234.34C194.489 234.34 194.042 234.45 193.629 234.67C193.222 234.89 192.839 235.19 192.479 235.57V243H190.329V232.8H191.629C191.922 232.8 192.109 232.937 192.189 233.21L192.339 234.15ZM203.986 228.6V231.48L203.796 233.04C203.756 233.293 203.683 233.493 203.576 233.64C203.469 233.78 203.293 233.85 203.046 233.85C202.833 233.85 202.669 233.78 202.556 233.64C202.443 233.493 202.363 233.293 202.316 233.04L202.126 231.48V228.6H203.986ZM210.716 243.16C209.869 243.16 209.216 242.923 208.756 242.45C208.303 241.97 208.076 241.297 208.076 240.43V234.49H206.956C206.836 234.49 206.733 234.453 206.646 234.38C206.559 234.3 206.516 234.183 206.516 234.03V233.16L208.166 232.92L208.636 229.97C208.669 229.857 208.726 229.767 208.806 229.7C208.886 229.627 208.993 229.59 209.126 229.59H210.226V232.94H213.056V234.49H210.226V240.28C210.226 240.647 210.316 240.927 210.496 241.12C210.676 241.313 210.916 241.41 211.216 241.41C211.383 241.41 211.526 241.39 211.646 241.35C211.766 241.303 211.869 241.257 211.956 241.21C212.043 241.157 212.116 241.11 212.176 241.07C212.243 241.023 212.306 241 212.366 241C212.486 241 212.583 241.067 212.656 241.2L213.296 242.25C212.963 242.543 212.569 242.77 212.116 242.93C211.663 243.083 211.196 243.16 210.716 243.16ZM225.001 243.16C224.155 243.16 223.501 242.923 223.041 242.45C222.588 241.97 222.361 241.297 222.361 240.43V234.49H221.241C221.121 234.49 221.018 234.453 220.931 234.38C220.845 234.3 220.801 234.183 220.801 234.03V233.16L222.451 232.92L222.921 229.97C222.955 229.857 223.011 229.767 223.091 229.7C223.171 229.627 223.278 229.59 223.411 229.59H224.511V232.94H227.341V234.49H224.511V240.28C224.511 240.647 224.601 240.927 224.781 241.12C224.961 241.313 225.201 241.41 225.501 241.41C225.668 241.41 225.811 241.39 225.931 241.35C226.051 241.303 226.155 241.257 226.241 241.21C226.328 241.157 226.401 241.11 226.461 241.07C226.528 241.023 226.591 241 226.651 241C226.771 241 226.868 241.067 226.941 241.2L227.581 242.25C227.248 242.543 226.855 242.77 226.401 242.93C225.948 243.083 225.481 243.16 225.001 243.16ZM232.066 234.69C232.386 234.043 232.773 233.537 233.226 233.17C233.679 232.797 234.223 232.61 234.856 232.61C235.076 232.61 235.283 232.637 235.476 232.69C235.669 232.737 235.843 232.81 235.996 232.91L235.846 234.53C235.819 234.643 235.776 234.723 235.716 234.77C235.663 234.81 235.589 234.83 235.496 234.83C235.396 234.83 235.253 234.813 235.066 234.78C234.879 234.74 234.683 234.72 234.476 234.72C234.176 234.72 233.909 234.763 233.676 234.85C233.449 234.937 233.243 235.063 233.056 235.23C232.876 235.397 232.716 235.6 232.576 235.84C232.436 236.08 232.306 236.353 232.186 236.66V243H230.036V232.8H231.286C231.513 232.8 231.669 232.843 231.756 232.93C231.843 233.01 231.903 233.153 231.936 233.36L232.066 234.69ZM243.712 238.54C242.946 238.567 242.299 238.63 241.772 238.73C241.246 238.823 240.819 238.947 240.492 239.1C240.166 239.247 239.929 239.423 239.782 239.63C239.642 239.837 239.572 240.063 239.572 240.31C239.572 240.55 239.609 240.757 239.682 240.93C239.762 241.097 239.869 241.237 240.002 241.35C240.142 241.457 240.302 241.537 240.482 241.59C240.669 241.637 240.872 241.66 241.092 241.66C241.652 241.66 242.132 241.557 242.532 241.35C242.939 241.137 243.332 240.83 243.712 240.43V238.54ZM238.012 234.22C239.166 233.147 240.539 232.61 242.132 232.61C242.719 232.61 243.239 232.707 243.692 232.9C244.152 233.087 244.536 233.353 244.842 233.7C245.156 234.047 245.392 234.46 245.552 234.94C245.719 235.413 245.802 235.94 245.802 236.52V243H244.842C244.636 243 244.479 242.97 244.372 242.91C244.266 242.843 244.176 242.713 244.102 242.52L243.892 241.69C243.632 241.923 243.376 242.133 243.122 242.32C242.869 242.5 242.606 242.653 242.332 242.78C242.066 242.907 241.776 243 241.462 243.06C241.156 243.127 240.816 243.16 240.442 243.16C240.029 243.16 239.642 243.103 239.282 242.99C238.929 242.877 238.622 242.707 238.362 242.48C238.102 242.247 237.896 241.96 237.742 241.62C237.596 241.28 237.522 240.88 237.522 240.42C237.522 240.027 237.626 239.643 237.832 239.27C238.046 238.897 238.392 238.563 238.872 238.27C239.359 237.97 239.996 237.723 240.782 237.53C241.576 237.337 242.552 237.227 243.712 237.2V236.52C243.712 235.787 243.556 235.24 243.242 234.88C242.929 234.52 242.469 234.34 241.862 234.34C241.449 234.34 241.102 234.393 240.822 234.5C240.542 234.6 240.299 234.71 240.092 234.83C239.886 234.95 239.702 235.063 239.542 235.17C239.382 235.27 239.212 235.32 239.032 235.32C238.886 235.32 238.759 235.283 238.652 235.21C238.552 235.13 238.469 235.033 238.402 234.92L238.012 234.22ZM256.531 234.8C256.464 234.887 256.401 234.953 256.341 235C256.281 235.047 256.194 235.07 256.081 235.07C255.968 235.07 255.848 235.03 255.721 234.95C255.601 234.87 255.454 234.783 255.281 234.69C255.114 234.59 254.911 234.5 254.671 234.42C254.431 234.34 254.131 234.3 253.771 234.3C253.304 234.3 252.894 234.383 252.541 234.55C252.194 234.717 251.901 234.957 251.661 235.27C251.428 235.577 251.251 235.953 251.131 236.4C251.018 236.84 250.961 237.337 250.961 237.89C250.961 238.463 251.024 238.973 251.151 239.42C251.278 239.867 251.458 240.243 251.691 240.55C251.931 240.857 252.218 241.09 252.551 241.25C252.891 241.41 253.271 241.49 253.691 241.49C254.104 241.49 254.441 241.44 254.701 241.34C254.961 241.24 255.178 241.13 255.351 241.01C255.524 240.89 255.671 240.78 255.791 240.68C255.918 240.58 256.051 240.53 256.191 240.53C256.364 240.53 256.498 240.597 256.591 240.73L257.201 241.52C256.954 241.82 256.681 242.073 256.381 242.28C256.081 242.487 255.764 242.657 255.431 242.79C255.098 242.917 254.751 243.007 254.391 243.06C254.031 243.12 253.668 243.15 253.301 243.15C252.668 243.15 252.074 243.033 251.521 242.8C250.974 242.56 250.494 242.217 250.081 241.77C249.674 241.317 249.351 240.767 249.111 240.12C248.878 239.467 248.761 238.723 248.761 237.89C248.761 237.137 248.868 236.44 249.081 235.8C249.294 235.153 249.604 234.597 250.011 234.13C250.424 233.663 250.934 233.3 251.541 233.04C252.148 232.773 252.848 232.64 253.641 232.64C254.381 232.64 255.031 232.76 255.591 233C256.158 233.24 256.661 233.58 257.101 234.02L256.531 234.8ZM266.445 236.75C266.445 236.39 266.391 236.057 266.285 235.75C266.185 235.437 266.035 235.167 265.835 234.94C265.635 234.707 265.385 234.527 265.085 234.4C264.791 234.267 264.451 234.2 264.065 234.2C263.285 234.2 262.671 234.423 262.225 234.87C261.778 235.317 261.495 235.943 261.375 236.75H266.445ZM261.315 238.07C261.341 238.65 261.431 239.153 261.585 239.58C261.738 240 261.941 240.35 262.195 240.63C262.455 240.91 262.761 241.12 263.115 241.26C263.475 241.393 263.875 241.46 264.315 241.46C264.735 241.46 265.098 241.413 265.405 241.32C265.711 241.22 265.978 241.113 266.205 241C266.431 240.88 266.625 240.773 266.785 240.68C266.945 240.58 267.091 240.53 267.225 240.53C267.398 240.53 267.531 240.597 267.625 240.73L268.235 241.52C267.981 241.82 267.695 242.073 267.375 242.28C267.055 242.487 266.715 242.657 266.355 242.79C265.995 242.917 265.625 243.007 265.245 243.06C264.865 243.12 264.495 243.15 264.135 243.15C263.428 243.15 262.771 243.033 262.165 242.8C261.565 242.56 261.041 242.21 260.595 241.75C260.155 241.29 259.808 240.72 259.555 240.04C259.308 239.36 259.185 238.577 259.185 237.69C259.185 236.983 259.295 236.323 259.515 235.71C259.741 235.097 260.061 234.563 260.475 234.11C260.895 233.657 261.401 233.3 261.995 233.04C262.595 232.773 263.271 232.64 264.025 232.64C264.651 232.64 265.231 232.743 265.765 232.95C266.298 233.15 266.758 233.447 267.145 233.84C267.531 234.233 267.831 234.717 268.045 235.29C268.265 235.857 268.375 236.503 268.375 237.23C268.375 237.563 268.338 237.787 268.265 237.9C268.191 238.013 268.058 238.07 267.865 238.07H261.315ZM287.26 243H285.11V234.49H280.14V240.28C280.14 240.647 280.23 240.927 280.41 241.12C280.59 241.313 280.83 241.41 281.13 241.41C281.297 241.41 281.44 241.39 281.56 241.35C281.68 241.303 281.783 241.257 281.87 241.21C281.957 241.157 282.03 241.11 282.09 241.07C282.157 241.023 282.22 241 282.28 241C282.4 241 282.497 241.067 282.57 241.2L283.21 242.25C282.877 242.543 282.483 242.77 282.03 242.93C281.577 243.083 281.11 243.16 280.63 243.16C279.783 243.16 279.13 242.923 278.67 242.45C278.217 241.97 277.99 241.297 277.99 240.43V234.49H276.87C276.75 234.49 276.647 234.453 276.56 234.38C276.473 234.3 276.43 234.183 276.43 234.03V233.16L278.08 232.92L278.55 229.97C278.583 229.857 278.64 229.767 278.72 229.7C278.8 229.627 278.907 229.59 279.04 229.59H280.14V232.94H287.26V243ZM287.7 229.67C287.7 229.863 287.66 230.047 287.58 230.22C287.507 230.387 287.403 230.537 287.27 230.67C287.137 230.797 286.98 230.9 286.8 230.98C286.627 231.053 286.443 231.09 286.25 231.09C286.057 231.09 285.873 231.053 285.7 230.98C285.533 230.9 285.383 230.797 285.25 230.67C285.123 230.537 285.02 230.387 284.94 230.22C284.867 230.047 284.83 229.863 284.83 229.67C284.83 229.47 284.867 229.283 284.94 229.11C285.02 228.93 285.123 228.777 285.25 228.65C285.383 228.517 285.533 228.413 285.7 228.34C285.873 228.26 286.057 228.22 286.25 228.22C286.443 228.22 286.627 228.26 286.8 228.34C286.98 228.413 287.137 228.517 287.27 228.65C287.403 228.777 287.507 228.93 287.58 229.11C287.66 229.283 287.7 229.47 287.7 229.67ZM290.977 243V232.8H292.277C292.571 232.8 292.757 232.937 292.837 233.21L292.977 234.1C293.164 233.887 293.357 233.693 293.557 233.52C293.757 233.34 293.971 233.187 294.197 233.06C294.431 232.927 294.677 232.823 294.937 232.75C295.204 232.677 295.491 232.64 295.797 232.64C296.124 232.64 296.424 232.687 296.697 232.78C296.971 232.873 297.211 233.007 297.417 233.18C297.631 233.353 297.814 233.563 297.967 233.81C298.121 234.057 298.247 234.333 298.347 234.64C298.501 234.287 298.694 233.983 298.927 233.73C299.161 233.477 299.421 233.27 299.707 233.11C299.994 232.95 300.297 232.833 300.617 232.76C300.944 232.68 301.274 232.64 301.607 232.64C302.154 232.64 302.641 232.727 303.067 232.9C303.501 233.073 303.864 233.327 304.157 233.66C304.457 233.987 304.684 234.39 304.837 234.87C304.991 235.35 305.067 235.897 305.067 236.51V243H302.917V236.51C302.917 235.79 302.761 235.25 302.447 234.89C302.141 234.523 301.684 234.34 301.077 234.34C300.804 234.34 300.547 234.387 300.307 234.48C300.067 234.573 299.857 234.71 299.677 234.89C299.497 235.07 299.354 235.297 299.247 235.57C299.147 235.837 299.097 236.15 299.097 236.51V243H296.947V236.51C296.947 235.763 296.797 235.217 296.497 234.87C296.197 234.517 295.757 234.34 295.177 234.34C294.777 234.34 294.407 234.443 294.067 234.65C293.727 234.85 293.414 235.127 293.127 235.48V243H290.977ZM315.269 236.75C315.269 236.39 315.216 236.057 315.109 235.75C315.009 235.437 314.859 235.167 314.659 234.94C314.459 234.707 314.209 234.527 313.909 234.4C313.616 234.267 313.276 234.2 312.889 234.2C312.109 234.2 311.496 234.423 311.049 234.87C310.602 235.317 310.319 235.943 310.199 236.75H315.269ZM310.139 238.07C310.166 238.65 310.256 239.153 310.409 239.58C310.562 240 310.766 240.35 311.019 240.63C311.279 240.91 311.586 241.12 311.939 241.26C312.299 241.393 312.699 241.46 313.139 241.46C313.559 241.46 313.922 241.413 314.229 241.32C314.536 241.22 314.802 241.113 315.029 241C315.256 240.88 315.449 240.773 315.609 240.68C315.769 240.58 315.916 240.53 316.049 240.53C316.222 240.53 316.356 240.597 316.449 240.73L317.059 241.52C316.806 241.82 316.519 242.073 316.199 242.28C315.879 242.487 315.539 242.657 315.179 242.79C314.819 242.917 314.449 243.007 314.069 243.06C313.689 243.12 313.319 243.15 312.959 243.15C312.252 243.15 311.596 243.033 310.989 242.8C310.389 242.56 309.866 242.21 309.419 241.75C308.979 241.29 308.632 240.72 308.379 240.04C308.132 239.36 308.009 238.577 308.009 237.69C308.009 236.983 308.119 236.323 308.339 235.71C308.566 235.097 308.886 234.563 309.299 234.11C309.719 233.657 310.226 233.3 310.819 233.04C311.419 232.773 312.096 232.64 312.849 232.64C313.476 232.64 314.056 232.743 314.589 232.95C315.122 233.15 315.582 233.447 315.969 233.84C316.356 234.233 316.656 234.717 316.869 235.29C317.089 235.857 317.199 236.503 317.199 237.23C317.199 237.563 317.162 237.787 317.089 237.9C317.016 238.013 316.882 238.07 316.689 238.07H310.139Z" fill="#554749"/>
<path d="M143.791 277H142.293V266.948H143.791V277ZM155.726 271.113C155.689 271.174 155.649 271.218 155.607 271.246C155.565 271.269 155.511 271.281 155.446 271.281C155.371 271.281 155.287 271.255 155.194 271.204C155.105 271.153 154.996 271.097 154.865 271.036C154.739 270.975 154.59 270.919 154.417 270.868C154.244 270.817 154.039 270.791 153.801 270.791C153.605 270.791 153.425 270.817 153.262 270.868C153.103 270.915 152.968 270.982 152.856 271.071C152.744 271.155 152.658 271.258 152.597 271.379C152.536 271.496 152.506 271.622 152.506 271.757C152.506 271.934 152.557 272.081 152.66 272.198C152.767 272.315 152.905 272.415 153.073 272.499C153.246 272.583 153.439 272.66 153.654 272.73C153.873 272.795 154.095 272.865 154.319 272.94C154.548 273.015 154.769 273.101 154.984 273.199C155.203 273.292 155.397 273.411 155.565 273.556C155.738 273.696 155.875 273.866 155.978 274.067C156.085 274.268 156.139 274.513 156.139 274.802C156.139 275.133 156.078 275.441 155.957 275.726C155.84 276.006 155.665 276.249 155.432 276.454C155.203 276.659 154.919 276.82 154.578 276.937C154.237 277.054 153.848 277.112 153.409 277.112C152.919 277.112 152.466 277.03 152.051 276.867C151.636 276.704 151.288 276.496 151.008 276.244L151.33 275.719C151.367 275.654 151.414 275.605 151.47 275.572C151.526 275.535 151.601 275.516 151.694 275.516C151.783 275.516 151.874 275.549 151.967 275.614C152.06 275.679 152.172 275.752 152.303 275.831C152.434 275.906 152.592 275.976 152.779 276.041C152.966 276.102 153.199 276.132 153.479 276.132C153.712 276.132 153.915 276.104 154.088 276.048C154.261 275.987 154.403 275.908 154.515 275.81C154.632 275.707 154.718 275.591 154.774 275.46C154.83 275.329 154.858 275.192 154.858 275.047C154.858 274.86 154.804 274.706 154.697 274.585C154.594 274.459 154.457 274.352 154.284 274.263C154.116 274.174 153.922 274.097 153.703 274.032C153.484 273.967 153.26 273.897 153.031 273.822C152.802 273.747 152.578 273.661 152.359 273.563C152.14 273.465 151.944 273.341 151.771 273.192C151.603 273.043 151.465 272.861 151.358 272.646C151.255 272.431 151.204 272.17 151.204 271.862C151.204 271.587 151.26 271.323 151.372 271.071C151.489 270.819 151.654 270.597 151.869 270.406C152.088 270.215 152.357 270.063 152.674 269.951C152.996 269.834 153.362 269.776 153.773 269.776C154.244 269.776 154.669 269.851 155.047 270C155.43 270.149 155.756 270.355 156.027 270.616L155.726 271.113ZM162.439 273.843C161.884 273.862 161.412 273.906 161.025 273.976C160.638 274.041 160.323 274.13 160.08 274.242C159.837 274.354 159.662 274.487 159.555 274.641C159.448 274.79 159.394 274.958 159.394 275.145C159.394 275.322 159.422 275.476 159.478 275.607C159.539 275.733 159.618 275.838 159.716 275.922C159.819 276.001 159.938 276.06 160.073 276.097C160.208 276.134 160.355 276.153 160.514 276.153C160.724 276.153 160.915 276.132 161.088 276.09C161.265 276.048 161.431 275.99 161.585 275.915C161.739 275.836 161.886 275.74 162.026 275.628C162.166 275.516 162.304 275.388 162.439 275.243V273.843ZM158.435 270.882C158.832 270.504 159.261 270.222 159.723 270.035C160.19 269.848 160.701 269.755 161.256 269.755C161.662 269.755 162.021 269.823 162.334 269.958C162.647 270.089 162.91 270.273 163.125 270.511C163.34 270.749 163.501 271.034 163.608 271.365C163.72 271.696 163.776 272.063 163.776 272.464V277H163.167C163.032 277 162.929 276.979 162.859 276.937C162.789 276.89 162.733 276.806 162.691 276.685L162.544 276.062C162.362 276.23 162.182 276.379 162.005 276.51C161.828 276.636 161.641 276.746 161.445 276.839C161.254 276.928 161.048 276.995 160.829 277.042C160.61 277.089 160.367 277.112 160.101 277.112C159.821 277.112 159.557 277.075 159.31 277C159.067 276.921 158.855 276.802 158.673 276.643C158.491 276.484 158.346 276.286 158.239 276.048C158.136 275.81 158.085 275.532 158.085 275.215C158.085 274.935 158.16 274.667 158.309 274.41C158.463 274.149 158.71 273.915 159.051 273.71C159.396 273.505 159.844 273.337 160.395 273.206C160.95 273.075 161.632 273.001 162.439 272.982V272.464C162.439 271.927 162.325 271.526 162.096 271.26C161.867 270.994 161.531 270.861 161.088 270.861C160.789 270.861 160.537 270.898 160.332 270.973C160.131 271.048 159.956 271.132 159.807 271.225C159.662 271.314 159.534 271.395 159.422 271.47C159.315 271.545 159.203 271.582 159.086 271.582C158.993 271.582 158.911 271.556 158.841 271.505C158.776 271.454 158.722 271.393 158.68 271.323L158.435 270.882ZM168.031 269.888V277H166.666V269.888H168.031ZM168.29 267.69C168.29 267.816 168.265 267.937 168.213 268.054C168.162 268.166 168.092 268.266 168.003 268.355C167.919 268.439 167.819 268.507 167.702 268.558C167.586 268.605 167.464 268.628 167.338 268.628C167.212 268.628 167.093 268.605 166.981 268.558C166.869 268.507 166.769 268.439 166.68 268.355C166.596 268.266 166.529 268.166 166.477 268.054C166.431 267.937 166.407 267.816 166.407 267.69C166.407 267.559 166.431 267.438 166.477 267.326C166.529 267.209 166.596 267.109 166.68 267.025C166.769 266.936 166.869 266.869 166.981 266.822C167.093 266.771 167.212 266.745 167.338 266.745C167.464 266.745 167.586 266.771 167.702 266.822C167.819 266.869 167.919 266.936 168.003 267.025C168.092 267.109 168.162 267.209 168.213 267.326C168.265 267.438 168.29 267.559 168.29 267.69ZM175.593 271.61C175.369 271.316 175.126 271.111 174.865 270.994C174.608 270.877 174.319 270.819 173.997 270.819C173.371 270.819 172.886 271.045 172.541 271.498C172.2 271.946 172.03 272.602 172.03 273.465C172.03 273.918 172.067 274.305 172.142 274.627C172.221 274.944 172.333 275.206 172.478 275.411C172.627 275.612 172.809 275.761 173.024 275.859C173.238 275.952 173.481 275.999 173.752 275.999C174.148 275.999 174.491 275.91 174.781 275.733C175.07 275.556 175.341 275.306 175.593 274.984V271.61ZM176.965 266.668V277H176.139C175.947 277 175.828 276.909 175.782 276.727L175.663 275.908C175.359 276.267 175.014 276.557 174.627 276.776C174.244 276.991 173.801 277.098 173.297 277.098C172.891 277.098 172.522 277.019 172.191 276.86C171.864 276.701 171.584 276.47 171.351 276.167C171.117 275.859 170.938 275.479 170.812 275.026C170.686 274.573 170.623 274.053 170.623 273.465C170.623 272.938 170.693 272.448 170.833 271.995C170.973 271.542 171.176 271.15 171.442 270.819C171.708 270.488 172.03 270.229 172.408 270.042C172.786 269.851 173.213 269.755 173.689 269.755C174.118 269.755 174.482 269.825 174.781 269.965C175.084 270.105 175.355 270.303 175.593 270.56V266.668H176.965ZM186.636 277.112C186.062 277.112 185.619 276.951 185.306 276.629C184.998 276.307 184.844 275.847 184.844 275.25V270.994H184.018C183.939 270.994 183.871 270.971 183.815 270.924C183.764 270.873 183.738 270.798 183.738 270.7V270.147L184.893 269.986L185.201 267.865C185.22 267.786 185.255 267.725 185.306 267.683C185.362 267.636 185.432 267.613 185.516 267.613H186.209V270H188.225V270.994H186.209V275.159C186.209 275.439 186.277 275.649 186.412 275.789C186.552 275.924 186.729 275.992 186.944 275.992C187.07 275.992 187.177 275.976 187.266 275.943C187.359 275.91 187.439 275.875 187.504 275.838C187.569 275.796 187.625 275.759 187.672 275.726C187.719 275.693 187.761 275.677 187.798 275.677C187.845 275.677 187.88 275.689 187.903 275.712C187.931 275.731 187.959 275.763 187.987 275.81L188.393 276.468C188.169 276.673 187.903 276.832 187.595 276.944C187.287 277.056 186.967 277.112 186.636 277.112ZM191.847 270.791C192.146 270.488 192.475 270.243 192.834 270.056C193.198 269.869 193.616 269.776 194.087 269.776C194.479 269.776 194.822 269.841 195.116 269.972C195.415 270.103 195.665 270.287 195.865 270.525C196.066 270.758 196.218 271.041 196.32 271.372C196.423 271.703 196.474 272.07 196.474 272.471V277H195.102V272.471C195.102 271.962 194.986 271.568 194.752 271.288C194.519 271.003 194.162 270.861 193.681 270.861C193.331 270.861 193.002 270.945 192.694 271.113C192.391 271.276 192.109 271.5 191.847 271.785V277H190.482V266.668H191.847V270.791ZM203.138 273.843C202.583 273.862 202.111 273.906 201.724 273.976C201.337 274.041 201.022 274.13 200.779 274.242C200.536 274.354 200.361 274.487 200.254 274.641C200.147 274.79 200.093 274.958 200.093 275.145C200.093 275.322 200.121 275.476 200.177 275.607C200.238 275.733 200.317 275.838 200.415 275.922C200.518 276.001 200.637 276.06 200.772 276.097C200.907 276.134 201.054 276.153 201.213 276.153C201.423 276.153 201.614 276.132 201.787 276.09C201.964 276.048 202.13 275.99 202.284 275.915C202.438 275.836 202.585 275.74 202.725 275.628C202.865 275.516 203.003 275.388 203.138 275.243V273.843ZM199.134 270.882C199.531 270.504 199.96 270.222 200.422 270.035C200.889 269.848 201.4 269.755 201.955 269.755C202.361 269.755 202.72 269.823 203.033 269.958C203.346 270.089 203.609 270.273 203.824 270.511C204.039 270.749 204.2 271.034 204.307 271.365C204.419 271.696 204.475 272.063 204.475 272.464V277H203.866C203.731 277 203.628 276.979 203.558 276.937C203.488 276.89 203.432 276.806 203.39 276.685L203.243 276.062C203.061 276.23 202.881 276.379 202.704 276.51C202.527 276.636 202.34 276.746 202.144 276.839C201.953 276.928 201.747 276.995 201.528 277.042C201.309 277.089 201.066 277.112 200.8 277.112C200.52 277.112 200.256 277.075 200.009 277C199.766 276.921 199.554 276.802 199.372 276.643C199.19 276.484 199.045 276.286 198.938 276.048C198.835 275.81 198.784 275.532 198.784 275.215C198.784 274.935 198.859 274.667 199.008 274.41C199.162 274.149 199.409 273.915 199.75 273.71C200.095 273.505 200.543 273.337 201.094 273.206C201.649 273.075 202.331 273.001 203.138 272.982V272.464C203.138 271.927 203.024 271.526 202.795 271.26C202.566 270.994 202.23 270.861 201.787 270.861C201.488 270.861 201.236 270.898 201.031 270.973C200.83 271.048 200.655 271.132 200.506 271.225C200.361 271.314 200.233 271.395 200.121 271.47C200.014 271.545 199.902 271.582 199.785 271.582C199.692 271.582 199.61 271.556 199.54 271.505C199.475 271.454 199.421 271.393 199.379 271.323L199.134 270.882ZM209.433 277.112C208.859 277.112 208.415 276.951 208.103 276.629C207.795 276.307 207.641 275.847 207.641 275.25V270.994H206.815C206.735 270.994 206.668 270.971 206.612 270.924C206.56 270.873 206.535 270.798 206.535 270.7V270.147L207.69 269.986L207.998 267.865C208.016 267.786 208.051 267.725 208.103 267.683C208.159 267.636 208.229 267.613 208.313 267.613H209.006V270H211.022V270.994H209.006V275.159C209.006 275.439 209.073 275.649 209.209 275.789C209.349 275.924 209.526 275.992 209.741 275.992C209.867 275.992 209.974 275.976 210.063 275.943C210.156 275.91 210.235 275.875 210.301 275.838C210.366 275.796 210.422 275.759 210.469 275.726C210.515 275.693 210.557 275.677 210.595 275.677C210.641 275.677 210.676 275.689 210.7 275.712C210.728 275.731 210.756 275.763 210.784 275.81L211.19 276.468C210.966 276.673 210.7 276.832 210.392 276.944C210.084 277.056 209.764 277.112 209.433 277.112ZM219.598 277H218.1V266.948H219.598V277ZM223.877 266.948V268.971L223.751 270.063C223.727 270.226 223.681 270.352 223.611 270.441C223.545 270.53 223.433 270.574 223.275 270.574C223.139 270.574 223.034 270.53 222.96 270.441C222.89 270.352 222.841 270.226 222.813 270.063L222.687 268.971V266.948H223.877ZM230.913 271.61C230.689 271.316 230.446 271.111 230.185 270.994C229.928 270.877 229.639 270.819 229.317 270.819C228.692 270.819 228.206 271.045 227.861 271.498C227.52 271.946 227.35 272.602 227.35 273.465C227.35 273.918 227.387 274.305 227.462 274.627C227.541 274.944 227.653 275.206 227.798 275.411C227.947 275.612 228.129 275.761 228.344 275.859C228.559 275.952 228.801 275.999 229.072 275.999C229.469 275.999 229.812 275.91 230.101 275.733C230.39 275.556 230.661 275.306 230.913 274.984V271.61ZM232.285 266.668V277H231.459C231.268 277 231.149 276.909 231.102 276.727L230.983 275.908C230.68 276.267 230.334 276.557 229.947 276.776C229.564 276.991 229.121 277.098 228.617 277.098C228.211 277.098 227.842 277.019 227.511 276.86C227.184 276.701 226.904 276.47 226.671 276.167C226.438 275.859 226.258 275.479 226.132 275.026C226.006 274.573 225.943 274.053 225.943 273.465C225.943 272.938 226.013 272.448 226.153 271.995C226.293 271.542 226.496 271.15 226.762 270.819C227.028 270.488 227.35 270.229 227.728 270.042C228.106 269.851 228.533 269.755 229.009 269.755C229.438 269.755 229.802 269.825 230.101 269.965C230.404 270.105 230.675 270.303 230.913 270.56V266.668H232.285ZM241.095 275.25C241.319 275.544 241.562 275.749 241.823 275.866C242.085 275.983 242.369 276.041 242.677 276.041C243.312 276.041 243.8 275.815 244.14 275.362C244.486 274.909 244.658 274.226 244.658 273.311C244.658 272.466 244.507 271.848 244.203 271.456C243.9 271.059 243.471 270.861 242.915 270.861C242.523 270.861 242.183 270.95 241.893 271.127C241.609 271.304 241.343 271.556 241.095 271.883V275.25ZM241.095 270.868C241.389 270.541 241.723 270.278 242.096 270.077C242.47 269.876 242.894 269.776 243.37 269.776C243.786 269.776 244.159 269.858 244.49 270.021C244.826 270.18 245.111 270.411 245.344 270.714C245.578 271.013 245.757 271.377 245.883 271.806C246.009 272.235 246.072 272.721 246.072 273.262C246.072 273.836 246 274.359 245.855 274.83C245.715 275.301 245.512 275.705 245.246 276.041C244.985 276.377 244.665 276.638 244.287 276.825C243.909 277.007 243.485 277.098 243.013 277.098C242.785 277.098 242.575 277.075 242.383 277.028C242.192 276.986 242.015 276.923 241.851 276.839C241.693 276.755 241.546 276.652 241.41 276.531C241.275 276.41 241.147 276.272 241.025 276.118L240.962 276.713C240.925 276.904 240.808 277 240.612 277H239.73V266.668H241.095V270.868ZM253.303 272.653C253.303 272.382 253.263 272.133 253.184 271.904C253.109 271.675 252.997 271.477 252.848 271.309C252.698 271.141 252.516 271.01 252.302 270.917C252.087 270.824 251.84 270.777 251.56 270.777C250.986 270.777 250.533 270.943 250.202 271.274C249.875 271.605 249.667 272.065 249.579 272.653H253.303ZM254.43 275.985C254.262 276.181 254.068 276.351 253.849 276.496C253.629 276.636 253.396 276.75 253.149 276.839C252.901 276.928 252.645 276.993 252.379 277.035C252.117 277.077 251.858 277.098 251.602 277.098C251.112 277.098 250.657 277.016 250.237 276.853C249.821 276.685 249.46 276.442 249.152 276.125C248.848 275.803 248.61 275.406 248.438 274.935C248.27 274.459 248.186 273.913 248.186 273.297C248.186 272.802 248.263 272.343 248.417 271.918C248.571 271.489 248.79 271.115 249.075 270.798C249.364 270.481 249.716 270.231 250.132 270.049C250.547 269.867 251.014 269.776 251.532 269.776C251.966 269.776 252.365 269.848 252.729 269.993C253.097 270.133 253.415 270.338 253.681 270.609C253.947 270.88 254.154 271.213 254.304 271.61C254.458 272.007 254.535 272.459 254.535 272.968C254.535 273.178 254.511 273.32 254.465 273.395C254.418 273.465 254.332 273.5 254.206 273.5H249.544C249.558 273.925 249.618 274.296 249.726 274.613C249.833 274.926 249.98 275.187 250.167 275.397C250.358 275.607 250.584 275.763 250.846 275.866C251.107 275.969 251.399 276.02 251.721 276.02C252.024 276.02 252.285 275.985 252.505 275.915C252.729 275.845 252.92 275.77 253.079 275.691C253.242 275.607 253.377 275.53 253.485 275.46C253.597 275.39 253.695 275.355 253.779 275.355C253.891 275.355 253.977 275.397 254.038 275.481L254.43 275.985ZM263.769 277.112C263.195 277.112 262.751 276.951 262.439 276.629C262.131 276.307 261.977 275.847 261.977 275.25V270.994H261.151C261.071 270.994 261.004 270.971 260.948 270.924C260.896 270.873 260.871 270.798 260.871 270.7V270.147L262.026 269.986L262.334 267.865C262.352 267.786 262.387 267.725 262.439 267.683C262.495 267.636 262.565 267.613 262.649 267.613H263.342V270H265.358V270.994H263.342V275.159C263.342 275.439 263.409 275.649 263.545 275.789C263.685 275.924 263.862 275.992 264.077 275.992C264.203 275.992 264.31 275.976 264.399 275.943C264.492 275.91 264.571 275.875 264.637 275.838C264.702 275.796 264.758 275.759 264.805 275.726C264.851 275.693 264.893 275.677 264.931 275.677C264.977 275.677 265.012 275.689 265.036 275.712C265.064 275.731 265.092 275.763 265.12 275.81L265.526 276.468C265.302 276.673 265.036 276.832 264.728 276.944C264.42 277.056 264.1 277.112 263.769 277.112ZM268.903 271.253C269.132 270.786 269.407 270.42 269.729 270.154C270.051 269.888 270.438 269.755 270.891 269.755C271.045 269.755 271.19 269.774 271.325 269.811C271.465 269.844 271.586 269.895 271.689 269.965L271.598 270.994C271.565 271.12 271.488 271.183 271.367 271.183C271.302 271.183 271.204 271.171 271.073 271.148C270.942 271.12 270.802 271.106 270.653 271.106C270.434 271.106 270.24 271.139 270.072 271.204C269.904 271.265 269.752 271.358 269.617 271.484C269.486 271.605 269.37 271.757 269.267 271.939C269.164 272.116 269.069 272.319 268.98 272.548V277H267.615V269.888H268.399C268.548 269.888 268.649 269.916 268.7 269.972C268.756 270.023 268.796 270.117 268.819 270.252L268.903 271.253ZM279.657 269.888V277H278.838C278.651 277 278.53 276.909 278.474 276.727L278.376 276.013C278.222 276.176 278.061 276.326 277.893 276.461C277.725 276.596 277.545 276.713 277.354 276.811C277.163 276.904 276.96 276.977 276.745 277.028C276.53 277.084 276.299 277.112 276.052 277.112C275.66 277.112 275.315 277.047 275.016 276.916C274.722 276.785 274.475 276.603 274.274 276.37C274.073 276.132 273.922 275.847 273.819 275.516C273.716 275.185 273.665 274.818 273.665 274.417V269.888H275.037V274.417C275.037 274.926 275.154 275.322 275.387 275.607C275.62 275.887 275.977 276.027 276.458 276.027C276.808 276.027 277.135 275.945 277.438 275.782C277.741 275.614 278.026 275.385 278.292 275.096V269.888H279.657ZM287.273 272.653C287.273 272.382 287.234 272.133 287.154 271.904C287.08 271.675 286.968 271.477 286.818 271.309C286.669 271.141 286.487 271.01 286.272 270.917C286.058 270.824 285.81 270.777 285.53 270.777C284.956 270.777 284.504 270.943 284.172 271.274C283.846 271.605 283.638 272.065 283.549 272.653H287.273ZM288.4 275.985C288.232 276.181 288.039 276.351 287.819 276.496C287.6 276.636 287.367 276.75 287.119 276.839C286.872 276.928 286.615 276.993 286.349 277.035C286.088 277.077 285.829 277.098 285.572 277.098C285.082 277.098 284.627 277.016 284.207 276.853C283.792 276.685 283.43 276.442 283.122 276.125C282.819 275.803 282.581 275.406 282.408 274.935C282.24 274.459 282.156 273.913 282.156 273.297C282.156 272.802 282.233 272.343 282.387 271.918C282.541 271.489 282.761 271.115 283.045 270.798C283.335 270.481 283.687 270.231 284.102 270.049C284.518 269.867 284.984 269.776 285.502 269.776C285.936 269.776 286.335 269.848 286.699 269.993C287.068 270.133 287.385 270.338 287.651 270.609C287.917 270.88 288.125 271.213 288.274 271.61C288.428 272.007 288.505 272.459 288.505 272.968C288.505 273.178 288.482 273.32 288.435 273.395C288.389 273.465 288.302 273.5 288.176 273.5H283.514C283.528 273.925 283.589 274.296 283.696 274.613C283.804 274.926 283.951 275.187 284.137 275.397C284.329 275.607 284.555 275.763 284.816 275.866C285.078 275.969 285.369 276.02 285.691 276.02C285.995 276.02 286.256 275.985 286.475 275.915C286.699 275.845 286.891 275.77 287.049 275.691C287.213 275.607 287.348 275.53 287.455 275.46C287.567 275.39 287.665 275.355 287.749 275.355C287.861 275.355 287.948 275.397 288.008 275.481L288.4 275.985Z" fill="#61ACDD"/>
<path d="M150.4 195.194H147.208V204H145.724V195.194H142.518V193.948H150.4V195.194ZM153.939 196.888V204H152.574V196.888H153.939ZM154.198 194.69C154.198 194.816 154.172 194.937 154.121 195.054C154.069 195.166 153.999 195.266 153.911 195.355C153.827 195.439 153.726 195.507 153.61 195.558C153.493 195.605 153.372 195.628 153.246 195.628C153.12 195.628 153.001 195.605 152.889 195.558C152.777 195.507 152.676 195.439 152.588 195.355C152.504 195.266 152.436 195.166 152.385 195.054C152.338 194.937 152.315 194.816 152.315 194.69C152.315 194.559 152.338 194.438 152.385 194.326C152.436 194.209 152.504 194.109 152.588 194.025C152.676 193.936 152.777 193.869 152.889 193.822C153.001 193.771 153.12 193.745 153.246 193.745C153.372 193.745 153.493 193.771 153.61 193.822C153.726 193.869 153.827 193.936 153.911 194.025C153.999 194.109 154.069 194.209 154.121 194.326C154.172 194.438 154.198 194.559 154.198 194.69ZM156.915 204V196.888H157.734C157.925 196.888 158.044 196.979 158.091 197.161L158.189 197.84C158.45 197.527 158.74 197.273 159.057 197.077C159.379 196.876 159.755 196.776 160.184 196.776C160.655 196.776 161.038 196.907 161.332 197.168C161.626 197.425 161.841 197.775 161.976 198.218C162.079 197.966 162.212 197.749 162.375 197.567C162.538 197.385 162.72 197.236 162.921 197.119C163.122 197.002 163.334 196.916 163.558 196.86C163.787 196.804 164.018 196.776 164.251 196.776C164.629 196.776 164.965 196.837 165.259 196.958C165.558 197.075 165.81 197.247 166.015 197.476C166.22 197.705 166.377 197.987 166.484 198.323C166.591 198.659 166.645 199.042 166.645 199.471V204H165.273V199.471C165.273 198.939 165.156 198.538 164.923 198.267C164.694 197.996 164.358 197.861 163.915 197.861C163.719 197.861 163.532 197.896 163.355 197.966C163.178 198.031 163.021 198.132 162.886 198.267C162.755 198.402 162.65 198.57 162.571 198.771C162.496 198.972 162.459 199.205 162.459 199.471V204H161.087V199.471C161.087 198.92 160.977 198.514 160.758 198.253C160.539 197.992 160.217 197.861 159.792 197.861C159.498 197.861 159.225 197.938 158.973 198.092C158.721 198.246 158.49 198.456 158.28 198.722V204H156.915ZM174.192 199.653C174.192 199.382 174.153 199.133 174.073 198.904C173.999 198.675 173.887 198.477 173.737 198.309C173.588 198.141 173.406 198.01 173.191 197.917C172.977 197.824 172.729 197.777 172.449 197.777C171.875 197.777 171.423 197.943 171.091 198.274C170.765 198.605 170.557 199.065 170.468 199.653H174.192ZM175.319 202.985C175.151 203.181 174.958 203.351 174.738 203.496C174.519 203.636 174.286 203.75 174.038 203.839C173.791 203.928 173.534 203.993 173.268 204.035C173.007 204.077 172.748 204.098 172.491 204.098C172.001 204.098 171.546 204.016 171.126 203.853C170.711 203.685 170.349 203.442 170.041 203.125C169.738 202.803 169.5 202.406 169.327 201.935C169.159 201.459 169.075 200.913 169.075 200.297C169.075 199.802 169.152 199.343 169.306 198.918C169.46 198.489 169.68 198.115 169.964 197.798C170.254 197.481 170.606 197.231 171.021 197.049C171.437 196.867 171.903 196.776 172.421 196.776C172.855 196.776 173.254 196.848 173.618 196.993C173.987 197.133 174.304 197.338 174.57 197.609C174.836 197.88 175.044 198.213 175.193 198.61C175.347 199.007 175.424 199.459 175.424 199.968C175.424 200.178 175.401 200.32 175.354 200.395C175.308 200.465 175.221 200.5 175.095 200.5H170.433C170.447 200.925 170.508 201.296 170.615 201.613C170.723 201.926 170.87 202.187 171.056 202.397C171.248 202.607 171.474 202.763 171.735 202.866C171.997 202.969 172.288 203.02 172.61 203.02C172.914 203.02 173.175 202.985 173.394 202.915C173.618 202.845 173.81 202.77 173.968 202.691C174.132 202.607 174.267 202.53 174.374 202.46C174.486 202.39 174.584 202.355 174.668 202.355C174.78 202.355 174.867 202.397 174.927 202.481L175.319 202.985ZM182.433 204V196.888H183.252C183.443 196.888 183.562 196.979 183.609 197.161L183.707 197.84C183.968 197.527 184.257 197.273 184.575 197.077C184.897 196.876 185.272 196.776 185.702 196.776C186.173 196.776 186.556 196.907 186.85 197.168C187.144 197.425 187.358 197.775 187.494 198.218C187.596 197.966 187.729 197.749 187.893 197.567C188.056 197.385 188.238 197.236 188.439 197.119C188.639 197.002 188.852 196.916 189.076 196.86C189.304 196.804 189.535 196.776 189.769 196.776C190.147 196.776 190.483 196.837 190.777 196.958C191.075 197.075 191.327 197.247 191.533 197.476C191.738 197.705 191.894 197.987 192.002 198.323C192.109 198.659 192.163 199.042 192.163 199.471V204H190.791V199.471C190.791 198.939 190.674 198.538 190.441 198.267C190.212 197.996 189.876 197.861 189.433 197.861C189.237 197.861 189.05 197.896 188.873 197.966C188.695 198.031 188.539 198.132 188.404 198.267C188.273 198.402 188.168 198.57 188.089 198.771C188.014 198.972 187.977 199.205 187.977 199.471V204H186.605V199.471C186.605 198.92 186.495 198.514 186.276 198.253C186.056 197.992 185.734 197.861 185.31 197.861C185.016 197.861 184.743 197.938 184.491 198.092C184.239 198.246 184.008 198.456 183.798 198.722V204H182.433ZM198.821 200.843C198.266 200.862 197.794 200.906 197.407 200.976C197.02 201.041 196.705 201.13 196.462 201.242C196.219 201.354 196.044 201.487 195.937 201.641C195.83 201.79 195.776 201.958 195.776 202.145C195.776 202.322 195.804 202.476 195.86 202.607C195.921 202.733 196 202.838 196.098 202.922C196.201 203.001 196.32 203.06 196.455 203.097C196.59 203.134 196.737 203.153 196.896 203.153C197.106 203.153 197.297 203.132 197.47 203.09C197.647 203.048 197.813 202.99 197.967 202.915C198.121 202.836 198.268 202.74 198.408 202.628C198.548 202.516 198.686 202.388 198.821 202.243V200.843ZM194.817 197.882C195.214 197.504 195.643 197.222 196.105 197.035C196.572 196.848 197.083 196.755 197.638 196.755C198.044 196.755 198.403 196.823 198.716 196.958C199.029 197.089 199.292 197.273 199.507 197.511C199.722 197.749 199.883 198.034 199.99 198.365C200.102 198.696 200.158 199.063 200.158 199.464V204H199.549C199.414 204 199.311 203.979 199.241 203.937C199.171 203.89 199.115 203.806 199.073 203.685L198.926 203.062C198.744 203.23 198.564 203.379 198.387 203.51C198.21 203.636 198.023 203.746 197.827 203.839C197.636 203.928 197.43 203.995 197.211 204.042C196.992 204.089 196.749 204.112 196.483 204.112C196.203 204.112 195.939 204.075 195.692 204C195.449 203.921 195.237 203.802 195.055 203.643C194.873 203.484 194.728 203.286 194.621 203.048C194.518 202.81 194.467 202.532 194.467 202.215C194.467 201.935 194.542 201.667 194.691 201.41C194.845 201.149 195.092 200.915 195.433 200.71C195.778 200.505 196.226 200.337 196.777 200.206C197.332 200.075 198.014 200.001 198.821 199.982V199.464C198.821 198.927 198.707 198.526 198.478 198.26C198.249 197.994 197.913 197.861 197.47 197.861C197.171 197.861 196.919 197.898 196.714 197.973C196.513 198.048 196.338 198.132 196.189 198.225C196.044 198.314 195.916 198.395 195.804 198.47C195.697 198.545 195.585 198.582 195.468 198.582C195.375 198.582 195.293 198.556 195.223 198.505C195.158 198.454 195.104 198.393 195.062 198.323L194.817 197.882ZM209.024 196.888L205.076 206.065C205.034 206.168 204.978 206.247 204.908 206.303C204.838 206.359 204.735 206.387 204.6 206.387H203.585L204.887 203.552L201.968 196.888H203.158C203.274 196.888 203.365 196.916 203.431 196.972C203.496 197.028 203.543 197.091 203.571 197.161L205.377 201.431C205.414 201.538 205.449 201.648 205.482 201.76C205.519 201.867 205.549 201.975 205.573 202.082C205.605 201.97 205.64 201.86 205.678 201.753C205.715 201.641 205.755 201.531 205.797 201.424L207.54 197.161C207.572 197.082 207.624 197.016 207.694 196.965C207.764 196.914 207.843 196.888 207.932 196.888H209.024ZM220.251 198.218C220.209 198.269 220.167 198.311 220.125 198.344C220.087 198.372 220.031 198.386 219.957 198.386C219.882 198.386 219.803 198.358 219.719 198.302C219.639 198.241 219.537 198.178 219.411 198.113C219.289 198.043 219.14 197.98 218.963 197.924C218.79 197.863 218.575 197.833 218.319 197.833C217.983 197.833 217.686 197.894 217.43 198.015C217.173 198.136 216.958 198.309 216.786 198.533C216.618 198.757 216.489 199.03 216.401 199.352C216.312 199.674 216.268 200.036 216.268 200.437C216.268 200.852 216.314 201.223 216.408 201.55C216.501 201.872 216.634 202.145 216.807 202.369C216.979 202.588 217.189 202.756 217.437 202.873C217.684 202.985 217.959 203.041 218.263 203.041C218.557 203.041 218.799 203.006 218.991 202.936C219.182 202.861 219.341 202.782 219.467 202.698C219.593 202.614 219.698 202.537 219.782 202.467C219.866 202.392 219.952 202.355 220.041 202.355C220.153 202.355 220.239 202.397 220.3 202.481L220.692 202.985C220.528 203.186 220.344 203.356 220.139 203.496C219.938 203.636 219.723 203.75 219.495 203.839C219.266 203.928 219.026 203.993 218.774 204.035C218.526 204.077 218.274 204.098 218.018 204.098C217.574 204.098 217.159 204.016 216.772 203.853C216.389 203.69 216.055 203.452 215.771 203.139C215.491 202.826 215.269 202.444 215.106 201.991C214.942 201.534 214.861 201.016 214.861 200.437C214.861 199.91 214.933 199.422 215.078 198.974C215.227 198.526 215.444 198.141 215.729 197.819C216.018 197.492 216.373 197.238 216.793 197.056C217.213 196.869 217.693 196.776 218.235 196.776C218.743 196.776 219.191 196.858 219.579 197.021C219.966 197.184 220.311 197.415 220.615 197.714L220.251 198.218ZM224.331 197.791C224.629 197.488 224.958 197.243 225.318 197.056C225.682 196.869 226.099 196.776 226.571 196.776C226.963 196.776 227.306 196.841 227.6 196.972C227.898 197.103 228.148 197.287 228.349 197.525C228.549 197.758 228.701 198.041 228.804 198.372C228.906 198.703 228.958 199.07 228.958 199.471V204H227.586V199.471C227.586 198.962 227.469 198.568 227.236 198.288C227.002 198.003 226.645 197.861 226.165 197.861C225.815 197.861 225.486 197.945 225.178 198.113C224.874 198.276 224.592 198.5 224.331 198.785V204H222.966V193.668H224.331V197.791ZM235.622 200.843C235.066 200.862 234.595 200.906 234.208 200.976C233.82 201.041 233.505 201.13 233.263 201.242C233.02 201.354 232.845 201.487 232.738 201.641C232.63 201.79 232.577 201.958 232.577 202.145C232.577 202.322 232.605 202.476 232.661 202.607C232.721 202.733 232.801 202.838 232.899 202.922C233.001 203.001 233.12 203.06 233.256 203.097C233.391 203.134 233.538 203.153 233.697 203.153C233.907 203.153 234.098 203.132 234.271 203.09C234.448 203.048 234.614 202.99 234.768 202.915C234.922 202.836 235.069 202.74 235.209 202.628C235.349 202.516 235.486 202.388 235.622 202.243V200.843ZM231.618 197.882C232.014 197.504 232.444 197.222 232.906 197.035C233.372 196.848 233.883 196.755 234.439 196.755C234.845 196.755 235.204 196.823 235.517 196.958C235.829 197.089 236.093 197.273 236.308 197.511C236.522 197.749 236.683 198.034 236.791 198.365C236.903 198.696 236.959 199.063 236.959 199.464V204H236.35C236.214 204 236.112 203.979 236.042 203.937C235.972 203.89 235.916 203.806 235.874 203.685L235.727 203.062C235.545 203.23 235.365 203.379 235.188 203.51C235.01 203.636 234.824 203.746 234.628 203.839C234.436 203.928 234.231 203.995 234.012 204.042C233.792 204.089 233.55 204.112 233.284 204.112C233.004 204.112 232.74 204.075 232.493 204C232.25 203.921 232.038 203.802 231.856 203.643C231.674 203.484 231.529 203.286 231.422 203.048C231.319 202.81 231.268 202.532 231.268 202.215C231.268 201.935 231.342 201.667 231.492 201.41C231.646 201.149 231.893 200.915 232.234 200.71C232.579 200.505 233.027 200.337 233.578 200.206C234.133 200.075 234.814 200.001 235.622 199.982V199.464C235.622 198.927 235.507 198.526 235.279 198.26C235.05 197.994 234.714 197.861 234.271 197.861C233.972 197.861 233.72 197.898 233.515 197.973C233.314 198.048 233.139 198.132 232.99 198.225C232.845 198.314 232.717 198.395 232.605 198.47C232.497 198.545 232.385 198.582 232.269 198.582C232.175 198.582 232.094 198.556 232.024 198.505C231.958 198.454 231.905 198.393 231.863 198.323L231.618 197.882ZM241.067 197.875C241.221 197.712 241.382 197.562 241.55 197.427C241.718 197.292 241.895 197.177 242.082 197.084C242.273 196.986 242.476 196.911 242.691 196.86C242.91 196.804 243.144 196.776 243.391 196.776C243.783 196.776 244.126 196.841 244.42 196.972C244.719 197.103 244.968 197.287 245.169 197.525C245.37 197.758 245.521 198.041 245.624 198.372C245.727 198.703 245.778 199.07 245.778 199.471V204H244.406V199.471C244.406 198.962 244.289 198.568 244.056 198.288C243.823 198.003 243.466 197.861 242.985 197.861C242.635 197.861 242.306 197.945 241.998 198.113C241.695 198.276 241.412 198.5 241.151 198.785V204H239.786V196.888H240.605C240.796 196.888 240.915 196.979 240.962 197.161L241.067 197.875ZM251.119 200.451C251.362 200.451 251.574 200.418 251.756 200.353C251.943 200.288 252.097 200.197 252.218 200.08C252.344 199.959 252.437 199.814 252.498 199.646C252.563 199.478 252.596 199.294 252.596 199.093C252.596 198.682 252.47 198.356 252.218 198.113C251.971 197.866 251.604 197.742 251.119 197.742C250.638 197.742 250.272 197.866 250.02 198.113C249.773 198.356 249.649 198.682 249.649 199.093C249.649 199.294 249.679 199.478 249.74 199.646C249.805 199.809 249.899 199.952 250.02 200.073C250.146 200.19 250.3 200.283 250.482 200.353C250.669 200.418 250.881 200.451 251.119 200.451ZM253.296 204.371C253.296 204.203 253.249 204.07 253.156 203.972C253.063 203.869 252.934 203.79 252.771 203.734C252.612 203.673 252.426 203.631 252.211 203.608C251.996 203.58 251.77 203.559 251.532 203.545C251.299 203.531 251.058 203.519 250.811 203.51C250.564 203.496 250.326 203.473 250.097 203.44C249.854 203.561 249.654 203.708 249.495 203.881C249.341 204.054 249.264 204.257 249.264 204.49C249.264 204.639 249.301 204.779 249.376 204.91C249.455 205.041 249.574 205.153 249.733 205.246C249.896 205.344 250.099 205.419 250.342 205.47C250.589 205.526 250.883 205.554 251.224 205.554C251.56 205.554 251.856 205.524 252.113 205.463C252.37 205.407 252.584 205.325 252.757 205.218C252.934 205.115 253.067 204.992 253.156 204.847C253.249 204.702 253.296 204.544 253.296 204.371ZM254.682 197.154V197.665C254.682 197.833 254.577 197.938 254.367 197.98L253.604 198.092C253.669 198.237 253.721 198.391 253.758 198.554C253.795 198.713 253.814 198.881 253.814 199.058C253.814 199.408 253.746 199.725 253.611 200.01C253.476 200.29 253.289 200.53 253.051 200.731C252.813 200.932 252.528 201.086 252.197 201.193C251.87 201.3 251.511 201.354 251.119 201.354C250.797 201.354 250.496 201.319 250.216 201.249C250.076 201.333 249.969 201.426 249.894 201.529C249.824 201.627 249.789 201.725 249.789 201.823C249.789 201.986 249.857 202.108 249.992 202.187C250.132 202.266 250.312 202.325 250.531 202.362C250.755 202.395 251.009 202.416 251.294 202.425C251.583 202.434 251.875 202.451 252.169 202.474C252.468 202.493 252.759 202.53 253.044 202.586C253.333 202.637 253.588 202.724 253.807 202.845C254.031 202.962 254.211 203.125 254.346 203.335C254.486 203.54 254.556 203.809 254.556 204.14C254.556 204.448 254.479 204.747 254.325 205.036C254.176 205.325 253.956 205.582 253.667 205.806C253.378 206.03 253.025 206.21 252.61 206.345C252.195 206.48 251.723 206.548 251.196 206.548C250.669 206.548 250.209 206.497 249.817 206.394C249.43 206.291 249.105 206.154 248.844 205.981C248.587 205.808 248.394 205.608 248.263 205.379C248.137 205.15 248.074 204.912 248.074 204.665C248.074 204.32 248.181 204.028 248.396 203.79C248.611 203.547 248.907 203.358 249.285 203.223C249.08 203.13 248.916 203.004 248.795 202.845C248.674 202.682 248.613 202.467 248.613 202.201C248.613 202.098 248.632 201.993 248.669 201.886C248.706 201.774 248.762 201.664 248.837 201.557C248.916 201.445 249.012 201.34 249.124 201.242C249.241 201.144 249.374 201.055 249.523 200.976C249.173 200.78 248.898 200.521 248.697 200.199C248.496 199.872 248.396 199.492 248.396 199.058C248.396 198.708 248.464 198.393 248.599 198.113C248.734 197.833 248.921 197.593 249.159 197.392C249.402 197.191 249.689 197.037 250.02 196.93C250.356 196.823 250.722 196.769 251.119 196.769C251.735 196.769 252.265 196.897 252.708 197.154H254.682ZM261.536 199.653C261.536 199.382 261.496 199.133 261.417 198.904C261.342 198.675 261.23 198.477 261.081 198.309C260.932 198.141 260.75 198.01 260.535 197.917C260.32 197.824 260.073 197.777 259.793 197.777C259.219 197.777 258.766 197.943 258.435 198.274C258.108 198.605 257.901 199.065 257.812 199.653H261.536ZM262.663 202.985C262.495 203.181 262.301 203.351 262.082 203.496C261.863 203.636 261.629 203.75 261.382 203.839C261.135 203.928 260.878 203.993 260.612 204.035C260.351 204.077 260.092 204.098 259.835 204.098C259.345 204.098 258.89 204.016 258.47 203.853C258.055 203.685 257.693 203.442 257.385 203.125C257.082 202.803 256.844 202.406 256.671 201.935C256.503 201.459 256.419 200.913 256.419 200.297C256.419 199.802 256.496 199.343 256.65 198.918C256.804 198.489 257.023 198.115 257.308 197.798C257.597 197.481 257.95 197.231 258.365 197.049C258.78 196.867 259.247 196.776 259.765 196.776C260.199 196.776 260.598 196.848 260.962 196.993C261.331 197.133 261.648 197.338 261.914 197.609C262.18 197.88 262.388 198.213 262.537 198.61C262.691 199.007 262.768 199.459 262.768 199.968C262.768 200.178 262.745 200.32 262.698 200.395C262.651 200.465 262.565 200.5 262.439 200.5H257.777C257.791 200.925 257.852 201.296 257.959 201.613C258.066 201.926 258.213 202.187 258.4 202.397C258.591 202.607 258.818 202.763 259.079 202.866C259.34 202.969 259.632 203.02 259.954 203.02C260.257 203.02 260.519 202.985 260.738 202.915C260.962 202.845 261.153 202.77 261.312 202.691C261.475 202.607 261.611 202.53 261.718 202.46C261.83 202.39 261.928 202.355 262.012 202.355C262.124 202.355 262.21 202.397 262.271 202.481L262.663 202.985ZM269.776 204V196.888H270.595C270.787 196.888 270.906 196.979 270.952 197.161L271.05 197.84C271.312 197.527 271.601 197.273 271.918 197.077C272.24 196.876 272.616 196.776 273.045 196.776C273.517 196.776 273.899 196.907 274.193 197.168C274.487 197.425 274.702 197.775 274.837 198.218C274.94 197.966 275.073 197.749 275.236 197.567C275.4 197.385 275.582 197.236 275.782 197.119C275.983 197.002 276.195 196.916 276.419 196.86C276.648 196.804 276.879 196.776 277.112 196.776C277.49 196.776 277.826 196.837 278.12 196.958C278.419 197.075 278.671 197.247 278.876 197.476C279.082 197.705 279.238 197.987 279.345 198.323C279.453 198.659 279.506 199.042 279.506 199.471V204H278.134V199.471C278.134 198.939 278.018 198.538 277.784 198.267C277.556 197.996 277.22 197.861 276.776 197.861C276.58 197.861 276.394 197.896 276.216 197.966C276.039 198.031 275.883 198.132 275.747 198.267C275.617 198.402 275.512 198.57 275.432 198.771C275.358 198.972 275.32 199.205 275.32 199.471V204H273.948V199.471C273.948 198.92 273.839 198.514 273.619 198.253C273.4 197.992 273.078 197.861 272.653 197.861C272.359 197.861 272.086 197.938 271.834 198.092C271.582 198.246 271.351 198.456 271.141 198.722V204H269.776ZM287.054 199.653C287.054 199.382 287.014 199.133 286.935 198.904C286.86 198.675 286.748 198.477 286.599 198.309C286.449 198.141 286.267 198.01 286.053 197.917C285.838 197.824 285.591 197.777 285.311 197.777C284.737 197.777 284.284 197.943 283.953 198.274C283.626 198.605 283.418 199.065 283.33 199.653H287.054ZM288.181 202.985C288.013 203.181 287.819 203.351 287.6 203.496C287.38 203.636 287.147 203.75 286.9 203.839C286.652 203.928 286.396 203.993 286.13 204.035C285.868 204.077 285.609 204.098 285.353 204.098C284.863 204.098 284.408 204.016 283.988 203.853C283.572 203.685 283.211 203.442 282.903 203.125C282.599 202.803 282.361 202.406 282.189 201.935C282.021 201.459 281.937 200.913 281.937 200.297C281.937 199.802 282.014 199.343 282.168 198.918C282.322 198.489 282.541 198.115 282.826 197.798C283.115 197.481 283.467 197.231 283.883 197.049C284.298 196.867 284.765 196.776 285.283 196.776C285.717 196.776 286.116 196.848 286.48 196.993C286.848 197.133 287.166 197.338 287.432 197.609C287.698 197.88 287.905 198.213 288.055 198.61C288.209 199.007 288.286 199.459 288.286 199.968C288.286 200.178 288.262 200.32 288.216 200.395C288.169 200.465 288.083 200.5 287.957 200.5H283.295C283.309 200.925 283.369 201.296 283.477 201.613C283.584 201.926 283.731 202.187 283.918 202.397C284.109 202.607 284.335 202.763 284.597 202.866C284.858 202.969 285.15 203.02 285.472 203.02C285.775 203.02 286.036 202.985 286.256 202.915C286.48 202.845 286.671 202.77 286.83 202.691C286.993 202.607 287.128 202.53 287.236 202.46C287.348 202.39 287.446 202.355 287.53 202.355C287.642 202.355 287.728 202.397 287.789 202.481L288.181 202.985Z" fill="#61ACDD"/>
<path d="M149.931 85C150.358 85 150.731 84.9493 151.051 84.848C151.371 84.7413 151.638 84.5947 151.851 84.408C152.064 84.2213 152.224 84 152.331 83.744C152.438 83.4827 152.491 83.1947 152.491 82.88C152.491 82.2507 152.283 81.7707 151.867 81.44C151.451 81.1093 150.822 80.944 149.979 80.944H148.459V85H149.931ZM155.355 91H153.683C153.352 91 153.112 90.872 152.963 90.616L150.275 86.736C150.184 86.6027 150.086 86.5067 149.979 86.448C149.872 86.3893 149.712 86.36 149.499 86.36H148.459V91H146.587V79.48H149.979C150.736 79.48 151.387 79.5573 151.931 79.712C152.48 79.8667 152.931 80.088 153.283 80.376C153.635 80.6587 153.894 81 154.059 81.4C154.23 81.8 154.315 82.2453 154.315 82.736C154.315 83.136 154.254 83.5093 154.131 83.856C154.014 84.2027 153.84 84.5173 153.611 84.8C153.387 85.0827 153.11 85.328 152.779 85.536C152.448 85.744 152.072 85.9067 151.651 86.024C151.88 86.1627 152.078 86.3573 152.243 86.608L155.355 91ZM161.658 87.432C161.045 87.4533 160.527 87.504 160.106 87.584C159.685 87.6587 159.343 87.7573 159.082 87.88C158.821 87.9973 158.631 88.1387 158.514 88.304C158.402 88.4693 158.346 88.6507 158.346 88.848C158.346 89.04 158.375 89.2053 158.434 89.344C158.498 89.4773 158.583 89.5893 158.69 89.68C158.802 89.7653 158.93 89.8293 159.074 89.872C159.223 89.9093 159.386 89.928 159.562 89.928C160.01 89.928 160.394 89.8453 160.714 89.68C161.039 89.5093 161.354 89.264 161.658 88.944V87.432ZM157.098 83.976C158.021 83.1173 159.119 82.688 160.394 82.688C160.863 82.688 161.279 82.7653 161.642 82.92C162.01 83.0693 162.317 83.2827 162.562 83.56C162.813 83.8373 163.002 84.168 163.13 84.552C163.263 84.9307 163.33 85.352 163.33 85.816V91H162.562C162.397 91 162.271 90.976 162.186 90.928C162.101 90.8747 162.029 90.7707 161.97 90.616L161.802 89.952C161.594 90.1387 161.389 90.3067 161.186 90.456C160.983 90.6 160.773 90.7227 160.554 90.824C160.341 90.9253 160.109 91 159.858 91.048C159.613 91.1013 159.341 91.128 159.042 91.128C158.711 91.128 158.402 91.0827 158.114 90.992C157.831 90.9013 157.586 90.7653 157.378 90.584C157.17 90.3973 157.005 90.168 156.882 89.896C156.765 89.624 156.706 89.304 156.706 88.936C156.706 88.6213 156.789 88.3147 156.954 88.016C157.125 87.7173 157.402 87.4507 157.786 87.216C158.175 86.976 158.685 86.7787 159.314 86.624C159.949 86.4693 160.73 86.3813 161.658 86.36V85.816C161.658 85.2293 161.533 84.792 161.282 84.504C161.031 84.216 160.663 84.072 160.178 84.072C159.847 84.072 159.57 84.1147 159.346 84.2C159.122 84.28 158.927 84.368 158.762 84.464C158.597 84.56 158.45 84.6507 158.322 84.736C158.194 84.816 158.058 84.856 157.914 84.856C157.797 84.856 157.695 84.8267 157.61 84.768C157.53 84.704 157.463 84.6267 157.41 84.536L157.098 83.976ZM167.953 83.92C168.129 83.7387 168.31 83.576 168.497 83.432C168.689 83.2827 168.892 83.1547 169.105 83.048C169.318 82.9413 169.545 82.8587 169.785 82.8C170.025 82.7413 170.286 82.712 170.569 82.712C171.017 82.712 171.409 82.7867 171.745 82.936C172.086 83.0853 172.372 83.296 172.601 83.568C172.836 83.84 173.012 84.168 173.129 84.552C173.246 84.9307 173.305 85.3493 173.305 85.808V91H171.593V85.808C171.593 85.2587 171.465 84.832 171.209 84.528C170.958 84.224 170.574 84.072 170.057 84.072C169.673 84.072 169.316 84.16 168.985 84.336C168.66 84.512 168.353 84.752 168.065 85.056V91H166.345V82.84H167.385C167.62 82.84 167.769 82.9493 167.833 83.168L167.953 83.92ZM181.522 84.848C181.282 84.5387 181.018 84.3227 180.73 84.2C180.442 84.0773 180.13 84.016 179.794 84.016C179.122 84.016 178.596 84.264 178.218 84.76C177.839 85.2507 177.65 85.9787 177.65 86.944C177.65 87.4453 177.692 87.8747 177.778 88.232C177.863 88.584 177.986 88.872 178.146 89.096C178.306 89.32 178.5 89.4827 178.73 89.584C178.959 89.6853 179.218 89.736 179.506 89.736C179.943 89.736 180.319 89.6427 180.634 89.456C180.954 89.264 181.25 88.9947 181.522 88.648V84.848ZM183.242 79.16V91H182.202C181.972 91 181.826 90.8907 181.762 90.672L181.61 89.784C181.268 90.184 180.879 90.5067 180.442 90.752C180.01 90.9973 179.506 91.12 178.93 91.12C178.471 91.12 178.055 91.0293 177.682 90.848C177.308 90.6613 176.988 90.392 176.722 90.04C176.455 89.688 176.247 89.2533 176.098 88.736C175.954 88.2133 175.882 87.616 175.882 86.944C175.882 86.336 175.962 85.7733 176.122 85.256C176.287 84.7387 176.522 84.2907 176.826 83.912C177.13 83.528 177.498 83.2293 177.93 83.016C178.367 82.7973 178.855 82.688 179.394 82.688C179.874 82.688 180.282 82.7653 180.618 82.92C180.954 83.0693 181.255 83.28 181.522 83.552V79.16H183.242ZM189.873 82.712C190.476 82.712 191.02 82.8107 191.505 83.008C191.996 83.2053 192.412 83.4853 192.753 83.848C193.1 84.2107 193.366 84.6507 193.553 85.168C193.74 85.6853 193.833 86.2667 193.833 86.912C193.833 87.5573 193.74 88.1387 193.553 88.656C193.366 89.1733 193.1 89.616 192.753 89.984C192.412 90.3467 191.996 90.6267 191.505 90.824C191.02 91.0213 190.476 91.12 189.873 91.12C189.265 91.12 188.716 91.0213 188.225 90.824C187.74 90.6267 187.324 90.3467 186.977 89.984C186.63 89.616 186.364 89.1733 186.177 88.656C185.99 88.1387 185.897 87.5573 185.897 86.912C185.897 86.2667 185.99 85.6853 186.177 85.168C186.364 84.6507 186.63 84.2107 186.977 83.848C187.324 83.4853 187.74 83.2053 188.225 83.008C188.716 82.8107 189.265 82.712 189.873 82.712ZM189.873 89.776C190.609 89.776 191.156 89.5307 191.513 89.04C191.876 88.544 192.057 87.8373 192.057 86.92C192.057 86.0027 191.876 85.296 191.513 84.8C191.156 84.2987 190.609 84.048 189.873 84.048C189.126 84.048 188.572 84.2987 188.209 84.8C187.846 85.296 187.665 86.0027 187.665 86.92C187.665 87.8373 187.846 88.544 188.209 89.04C188.572 89.5307 189.126 89.776 189.873 89.776ZM196.486 91V82.84H197.526C197.76 82.84 197.91 82.9493 197.974 83.168L198.086 83.88C198.235 83.7093 198.39 83.5547 198.55 83.416C198.71 83.272 198.88 83.1493 199.062 83.048C199.248 82.9413 199.446 82.8587 199.654 82.8C199.867 82.7413 200.096 82.712 200.342 82.712C200.603 82.712 200.843 82.7493 201.062 82.824C201.28 82.8987 201.472 83.0053 201.638 83.144C201.808 83.2827 201.955 83.4507 202.078 83.648C202.2 83.8453 202.302 84.0667 202.382 84.312C202.504 84.0293 202.659 83.7867 202.846 83.584C203.032 83.3813 203.24 83.216 203.47 83.088C203.699 82.96 203.942 82.8667 204.198 82.808C204.459 82.744 204.723 82.712 204.99 82.712C205.427 82.712 205.816 82.7813 206.158 82.92C206.504 83.0587 206.795 83.2613 207.03 83.528C207.27 83.7893 207.451 84.112 207.574 84.496C207.696 84.88 207.758 85.3173 207.758 85.808V91H206.038V85.808C206.038 85.232 205.912 84.8 205.662 84.512C205.416 84.2187 205.051 84.072 204.566 84.072C204.347 84.072 204.142 84.1093 203.95 84.184C203.758 84.2587 203.59 84.368 203.446 84.512C203.302 84.656 203.187 84.8373 203.102 85.056C203.022 85.2693 202.982 85.52 202.982 85.808V91H201.262V85.808C201.262 85.2107 201.142 84.7733 200.902 84.496C200.662 84.2133 200.31 84.072 199.846 84.072C199.526 84.072 199.23 84.1547 198.958 84.32C198.686 84.48 198.435 84.7013 198.206 84.984V91H196.486ZM224.071 88.432C224.173 88.432 224.261 88.472 224.335 88.552L225.079 89.36C224.61 89.9253 224.034 90.3627 223.351 90.672C222.669 90.976 221.853 91.128 220.903 91.128C220.061 91.128 219.298 90.984 218.615 90.696C217.938 90.4027 217.359 89.9973 216.879 89.48C216.399 88.9573 216.029 88.336 215.767 87.616C215.511 86.896 215.383 86.104 215.383 85.24C215.383 84.376 215.519 83.584 215.791 82.864C216.069 82.1387 216.455 81.5173 216.951 81C217.453 80.4773 218.05 80.072 218.743 79.784C219.442 79.496 220.21 79.352 221.047 79.352C221.879 79.352 222.613 79.488 223.247 79.76C223.887 80.0267 224.442 80.384 224.911 80.832L224.295 81.704C224.253 81.7627 224.202 81.8133 224.143 81.856C224.085 81.8987 224.005 81.92 223.903 81.92C223.797 81.92 223.674 81.872 223.535 81.776C223.402 81.6747 223.229 81.5653 223.015 81.448C222.807 81.3253 222.543 81.216 222.223 81.12C221.909 81.0187 221.514 80.968 221.039 80.968C220.49 80.968 219.986 81.064 219.527 81.256C219.069 81.448 218.674 81.728 218.343 82.096C218.013 82.464 217.754 82.912 217.567 83.44C217.386 83.968 217.295 84.568 217.295 85.24C217.295 85.9173 217.391 86.5227 217.583 87.056C217.775 87.584 218.039 88.032 218.375 88.4C218.711 88.7627 219.106 89.04 219.559 89.232C220.013 89.424 220.501 89.52 221.023 89.52C221.343 89.52 221.629 89.504 221.879 89.472C222.135 89.4347 222.37 89.3787 222.583 89.304C222.797 89.224 222.997 89.1253 223.183 89.008C223.375 88.8907 223.565 88.7467 223.751 88.576C223.858 88.48 223.965 88.432 224.071 88.432ZM229.128 79.16V91H227.408V79.16H229.128ZM236.611 87.432C235.998 87.4533 235.481 87.504 235.059 87.584C234.638 87.6587 234.297 87.7573 234.035 87.88C233.774 87.9973 233.585 88.1387 233.467 88.304C233.355 88.4693 233.299 88.6507 233.299 88.848C233.299 89.04 233.329 89.2053 233.387 89.344C233.451 89.4773 233.537 89.5893 233.643 89.68C233.755 89.7653 233.883 89.8293 234.027 89.872C234.177 89.9093 234.339 89.928 234.515 89.928C234.963 89.928 235.347 89.8453 235.667 89.68C235.993 89.5093 236.307 89.264 236.611 88.944V87.432ZM232.051 83.976C232.974 83.1173 234.073 82.688 235.347 82.688C235.817 82.688 236.233 82.7653 236.595 82.92C236.963 83.0693 237.27 83.2827 237.515 83.56C237.766 83.8373 237.955 84.168 238.083 84.552C238.217 84.9307 238.283 85.352 238.283 85.816V91H237.515C237.35 91 237.225 90.976 237.139 90.928C237.054 90.8747 236.982 90.7707 236.923 90.616L236.755 89.952C236.547 90.1387 236.342 90.3067 236.139 90.456C235.937 90.6 235.726 90.7227 235.507 90.824C235.294 90.9253 235.062 91 234.811 91.048C234.566 91.1013 234.294 91.128 233.995 91.128C233.665 91.128 233.355 91.0827 233.067 90.992C232.785 90.9013 232.539 90.7653 232.331 90.584C232.123 90.3973 231.958 90.168 231.835 89.896C231.718 89.624 231.659 89.304 231.659 88.936C231.659 88.6213 231.742 88.3147 231.907 88.016C232.078 87.7173 232.355 87.4507 232.739 87.216C233.129 86.976 233.638 86.7787 234.267 86.624C234.902 86.4693 235.683 86.3813 236.611 86.36V85.816C236.611 85.2293 236.486 84.792 236.235 84.504C235.985 84.216 235.617 84.072 235.131 84.072C234.801 84.072 234.523 84.1147 234.299 84.2C234.075 84.28 233.881 84.368 233.715 84.464C233.55 84.56 233.403 84.6507 233.275 84.736C233.147 84.816 233.011 84.856 232.867 84.856C232.75 84.856 232.649 84.8267 232.563 84.768C232.483 84.704 232.417 84.6267 232.363 84.536L232.051 83.976ZM246.17 84.32C246.127 84.3947 246.079 84.448 246.026 84.48C245.973 84.512 245.906 84.528 245.826 84.528C245.735 84.528 245.637 84.5013 245.53 84.448C245.423 84.3893 245.298 84.3253 245.154 84.256C245.01 84.1867 244.839 84.1253 244.642 84.072C244.45 84.0133 244.223 83.984 243.962 83.984C243.749 83.984 243.554 84.0107 243.378 84.064C243.207 84.112 243.061 84.184 242.938 84.28C242.821 84.3707 242.73 84.48 242.666 84.608C242.602 84.7307 242.57 84.864 242.57 85.008C242.57 85.2 242.629 85.36 242.746 85.488C242.863 85.616 243.018 85.728 243.21 85.824C243.402 85.9147 243.621 85.9973 243.866 86.072C244.111 86.1467 244.362 86.2267 244.618 86.312C244.874 86.3973 245.125 86.496 245.37 86.608C245.615 86.72 245.834 86.8587 246.026 87.024C246.218 87.184 246.373 87.3813 246.49 87.616C246.607 87.8453 246.666 88.1253 246.666 88.456C246.666 88.84 246.597 89.1947 246.458 89.52C246.319 89.8453 246.117 90.128 245.85 90.368C245.583 90.608 245.25 90.7947 244.85 90.928C244.455 91.0613 244.002 91.128 243.49 91.128C243.207 91.128 242.933 91.1013 242.666 91.048C242.405 91 242.154 90.9333 241.914 90.848C241.679 90.7573 241.458 90.6507 241.25 90.528C241.047 90.4053 240.866 90.272 240.706 90.128L241.106 89.472C241.154 89.392 241.213 89.3307 241.282 89.288C241.357 89.24 241.447 89.216 241.554 89.216C241.666 89.216 241.775 89.2533 241.882 89.328C241.994 89.3973 242.122 89.4747 242.266 89.56C242.415 89.6453 242.594 89.7253 242.802 89.8C243.01 89.8693 243.269 89.904 243.578 89.904C243.834 89.904 244.055 89.8747 244.242 89.816C244.429 89.752 244.583 89.6667 244.706 89.56C244.829 89.4533 244.919 89.3333 244.978 89.2C245.037 89.0613 245.066 88.9147 245.066 88.76C245.066 88.552 245.007 88.3813 244.89 88.248C244.773 88.1147 244.615 88 244.418 87.904C244.226 87.808 244.005 87.7227 243.754 87.648C243.509 87.5733 243.258 87.4933 243.002 87.408C242.746 87.3227 242.493 87.224 242.242 87.112C241.997 87 241.775 86.8587 241.578 86.688C241.386 86.512 241.231 86.3013 241.114 86.056C240.997 85.8053 240.938 85.5013 240.938 85.144C240.938 84.8187 241.002 84.5093 241.13 84.216C241.263 83.9227 241.455 83.664 241.706 83.44C241.962 83.216 242.274 83.04 242.642 82.912C243.015 82.7787 243.445 82.712 243.93 82.712C244.479 82.712 244.978 82.8 245.426 82.976C245.874 83.152 246.25 83.392 246.554 83.696L246.17 84.32ZM254.154 84.32C254.112 84.3947 254.064 84.448 254.01 84.48C253.957 84.512 253.89 84.528 253.81 84.528C253.72 84.528 253.621 84.5013 253.514 84.448C253.408 84.3893 253.282 84.3253 253.138 84.256C252.994 84.1867 252.824 84.1253 252.626 84.072C252.434 84.0133 252.208 83.984 251.946 83.984C251.733 83.984 251.538 84.0107 251.362 84.064C251.192 84.112 251.045 84.184 250.922 84.28C250.805 84.3707 250.714 84.48 250.65 84.608C250.586 84.7307 250.554 84.864 250.554 85.008C250.554 85.2 250.613 85.36 250.73 85.488C250.848 85.616 251.002 85.728 251.194 85.824C251.386 85.9147 251.605 85.9973 251.85 86.072C252.096 86.1467 252.346 86.2267 252.602 86.312C252.858 86.3973 253.109 86.496 253.354 86.608C253.6 86.72 253.818 86.8587 254.01 87.024C254.202 87.184 254.357 87.3813 254.474 87.616C254.592 87.8453 254.65 88.1253 254.65 88.456C254.65 88.84 254.581 89.1947 254.442 89.52C254.304 89.8453 254.101 90.128 253.834 90.368C253.568 90.608 253.234 90.7947 252.834 90.928C252.44 91.0613 251.986 91.128 251.474 91.128C251.192 91.128 250.917 91.1013 250.65 91.048C250.389 91 250.138 90.9333 249.898 90.848C249.664 90.7573 249.442 90.6507 249.234 90.528C249.032 90.4053 248.85 90.272 248.69 90.128L249.09 89.472C249.138 89.392 249.197 89.3307 249.266 89.288C249.341 89.24 249.432 89.216 249.538 89.216C249.65 89.216 249.76 89.2533 249.866 89.328C249.978 89.3973 250.106 89.4747 250.25 89.56C250.4 89.6453 250.578 89.7253 250.786 89.8C250.994 89.8693 251.253 89.904 251.562 89.904C251.818 89.904 252.04 89.8747 252.226 89.816C252.413 89.752 252.568 89.6667 252.69 89.56C252.813 89.4533 252.904 89.3333 252.962 89.2C253.021 89.0613 253.05 88.9147 253.05 88.76C253.05 88.552 252.992 88.3813 252.874 88.248C252.757 88.1147 252.6 88 252.402 87.904C252.21 87.808 251.989 87.7227 251.738 87.648C251.493 87.5733 251.242 87.4933 250.986 87.408C250.73 87.3227 250.477 87.224 250.226 87.112C249.981 87 249.76 86.8587 249.562 86.688C249.37 86.512 249.216 86.3013 249.098 86.056C248.981 85.8053 248.922 85.5013 248.922 85.144C248.922 84.8187 248.986 84.5093 249.114 84.216C249.248 83.9227 249.44 83.664 249.69 83.44C249.946 83.216 250.258 83.04 250.626 82.912C251 82.7787 251.429 82.712 251.914 82.712C252.464 82.712 252.962 82.8 253.41 82.976C253.858 83.152 254.234 83.392 254.538 83.696L254.154 84.32ZM259.059 82.84V91H257.339V82.84H259.059ZM259.347 80.376C259.347 80.5307 259.315 80.6773 259.251 80.816C259.192 80.9547 259.11 81.0773 259.003 81.184C258.896 81.2853 258.771 81.368 258.627 81.432C258.488 81.4907 258.339 81.52 258.179 81.52C258.024 81.52 257.878 81.4907 257.739 81.432C257.606 81.368 257.488 81.2853 257.387 81.184C257.286 81.0773 257.203 80.9547 257.139 80.816C257.08 80.6773 257.051 80.5307 257.051 80.376C257.051 80.216 257.08 80.0667 257.139 79.928C257.203 79.7893 257.286 79.6693 257.387 79.568C257.488 79.4613 257.606 79.3787 257.739 79.32C257.878 79.256 258.024 79.224 258.179 79.224C258.339 79.224 258.488 79.256 258.627 79.32C258.771 79.3787 258.896 79.4613 259.003 79.568C259.11 79.6693 259.192 79.7893 259.251 79.928C259.315 80.0667 259.347 80.216 259.347 80.376ZM267.988 84.44C267.935 84.5093 267.884 84.5627 267.836 84.6C267.788 84.6373 267.719 84.656 267.628 84.656C267.537 84.656 267.441 84.624 267.34 84.56C267.244 84.496 267.127 84.4267 266.988 84.352C266.855 84.272 266.692 84.2 266.5 84.136C266.308 84.072 266.068 84.04 265.78 84.04C265.407 84.04 265.079 84.1067 264.796 84.24C264.519 84.3733 264.284 84.5653 264.092 84.816C263.905 85.0613 263.764 85.3627 263.668 85.72C263.577 86.072 263.532 86.4693 263.532 86.912C263.532 87.3707 263.583 87.7787 263.684 88.136C263.785 88.4933 263.929 88.7947 264.116 89.04C264.308 89.2853 264.537 89.472 264.804 89.6C265.076 89.728 265.38 89.792 265.716 89.792C266.047 89.792 266.316 89.752 266.524 89.672C266.732 89.592 266.905 89.504 267.044 89.408C267.183 89.312 267.3 89.224 267.396 89.144C267.497 89.064 267.604 89.024 267.716 89.024C267.855 89.024 267.961 89.0773 268.036 89.184L268.524 89.816C268.327 90.056 268.108 90.2587 267.868 90.424C267.628 90.5893 267.375 90.7253 267.108 90.832C266.841 90.9333 266.564 91.0053 266.276 91.048C265.988 91.096 265.697 91.12 265.404 91.12C264.897 91.12 264.423 91.0267 263.98 90.84C263.543 90.648 263.159 90.3733 262.828 90.016C262.503 89.6533 262.244 89.2133 262.052 88.696C261.865 88.1733 261.772 87.5787 261.772 86.912C261.772 86.3093 261.857 85.752 262.028 85.24C262.199 84.7227 262.447 84.2773 262.772 83.904C263.103 83.5307 263.511 83.24 263.996 83.032C264.481 82.8187 265.041 82.712 265.676 82.712C266.268 82.712 266.788 82.808 267.236 83C267.689 83.192 268.092 83.464 268.444 83.816L267.988 84.44ZM275.267 87.432C274.654 87.4533 274.137 87.504 273.715 87.584C273.294 87.6587 272.953 87.7573 272.691 87.88C272.43 87.9973 272.241 88.1387 272.123 88.304C272.011 88.4693 271.955 88.6507 271.955 88.848C271.955 89.04 271.985 89.2053 272.043 89.344C272.107 89.4773 272.193 89.5893 272.299 89.68C272.411 89.7653 272.539 89.8293 272.683 89.872C272.833 89.9093 272.995 89.928 273.171 89.928C273.619 89.928 274.003 89.8453 274.323 89.68C274.649 89.5093 274.963 89.264 275.267 88.944V87.432ZM270.707 83.976C271.63 83.1173 272.729 82.688 274.003 82.688C274.473 82.688 274.889 82.7653 275.251 82.92C275.619 83.0693 275.926 83.2827 276.171 83.56C276.422 83.8373 276.611 84.168 276.739 84.552C276.873 84.9307 276.939 85.352 276.939 85.816V91H276.171C276.006 91 275.881 90.976 275.795 90.928C275.71 90.8747 275.638 90.7707 275.579 90.616L275.411 89.952C275.203 90.1387 274.998 90.3067 274.795 90.456C274.593 90.6 274.382 90.7227 274.163 90.824C273.95 90.9253 273.718 91 273.467 91.048C273.222 91.1013 272.95 91.128 272.651 91.128C272.321 91.128 272.011 91.0827 271.723 90.992C271.441 90.9013 271.195 90.7653 270.987 90.584C270.779 90.3973 270.614 90.168 270.491 89.896C270.374 89.624 270.315 89.304 270.315 88.936C270.315 88.6213 270.398 88.3147 270.563 88.016C270.734 87.7173 271.011 87.4507 271.395 87.216C271.785 86.976 272.294 86.7787 272.923 86.624C273.558 86.4693 274.339 86.3813 275.267 86.36V85.816C275.267 85.2293 275.142 84.792 274.891 84.504C274.641 84.216 274.273 84.072 273.787 84.072C273.457 84.072 273.179 84.1147 272.955 84.2C272.731 84.28 272.537 84.368 272.371 84.464C272.206 84.56 272.059 84.6507 271.931 84.736C271.803 84.816 271.667 84.856 271.523 84.856C271.406 84.856 271.305 84.8267 271.219 84.768C271.139 84.704 271.073 84.6267 271.019 84.536L270.707 83.976ZM281.706 79.16V91H279.986V79.16H281.706Z" fill="#554749"/>
<g filter="url(#filter0_d_22_1215)">
<rect x="354" y="50" width="36" height="36" rx="4" fill="#FAFAFA"/>
<rect x="354" y="50" width="36" height="36" rx="4" stroke="#61ACDD"/>
</g>
<path fill-rule="evenodd" clip-rule="evenodd" d="M377.444 75H366.556C365.696 75 365 74.3036 365 73.4444V62.5556C365 61.6964 365.696 61 366.556 61H375.111L379 64.8889V73.4444C379 74.3036 378.304 75 377.444 75Z" fill="#61ACDD" stroke="white" stroke-width="1.5" stroke-linecap="round" stroke-linejoin="round"/>
<path fill-rule="evenodd" clip-rule="evenodd" d="M375.889 75V68.7778H368.111V75" fill="#61ACDD"/>
<path d="M375.889 75V68.7778H368.111V75" stroke="white" stroke-width="1.5" stroke-linecap="round" stroke-linejoin="round"/>
<path fill-rule="evenodd" clip-rule="evenodd" d="M368.111 61V64.8889H374.333" fill="#61ACDD"/>
<path d="M368.111 61V64.8889H374.333" stroke="white" stroke-width="1.5" stroke-linecap="round" stroke-linejoin="round"/>
</g>
<defs>
<filter id="filter0_d_22_1215" x="305.5" y="3.5" width="133" height="133" filterUnits="userSpaceOnUse" color-interpolation-filters="sRGB">
<feFlood flood-opacity="0" result="BackgroundImageFix"/>
<feColorMatrix in="SourceAlpha" type="matrix" values="0 0 0 0 0 0 0 0 0 0 0 0 0 0 0 0 0 0 127 0" result="hardAlpha"/>
<feOffset dy="2"/>
<feGaussianBlur stdDeviation="24"/>
<feColorMatrix type="matrix" values="0 0 0 0 0 0 0 0 0 0 0 0 0 0 0 0 0 0 0.04 0"/>
<feBlend mode="normal" in2="BackgroundImageFix" result="effect1_dropShadow_22_1215"/>
<feBlend mode="normal" in="SourceGraphic" in2="effect1_dropShadow_22_1215" result="shape"/>
</filter>
</defs>
</svg>
